<?xml version="1.0" encoding="UTF-8"?>
<svg version="1.1" viewBox="0 0 900 900" width="225" height="225" xmlns="http://www.w3.org/2000/svg">
<path transform="translate(0)" d="m0 0h900v900h-900z" fill="#FCFCFC"/>
<path transform="translate(437,284)" d="m0 0h8l6 4 34 34v2l4 2v2l4 2v2l4 2 5 6 8 7 7 7v2l4 2 8 8v2l4 2v2l4 2v2l3 1 6 7 6 5 5 6 8 7 5 6 8 7 7 7v2l4 2v2l4 2v2l3 1 5 5v2l4 2 11 11 6 7 6 5 5 6 4 3v2l4 2v2l3 1 6 7 6 5 6 7 6 5 7 8 10 10 8 7 4 5-2 4-8 7-171 171-1 2-4-1-248-248-1-7v-53l1-4 5 1 11 4 1 1 1 43 2 9 227 227 4 2 157-157-1-3-7-6-20-20v-2l-4-2-8-8v-2l-4-2-187-187-15-1h-92l-11 1-8 7-4 5-8 7-18 18-2 3-1 5-1 35-6-1-9-6-3-5v-24l1-12 50-50 2-1z" fill="#383838"/>
<path transform="translate(257,180)" d="m0 0h15l14 4 11 7 7 7 6 10 3 7 1 5v13l-3 13-7 14-11 13-5 6-8 7-13 12-11 11-7 11-4 10-1 4v16l4 13 7 10 8 8 14 7 11 3h22l16-4 12-6 5-4 5-5 4-3h6l4 5 1 4-5 8-11 9-14 8-13 4-13 2h-12l-14-2-12-4-14-7-12-11-7-9-6-13-3-13v-15l4-16 7-14 8-10 15-15 8-7 10-9 11-14 6-12 1-4v-14l-6-12-7-6-8-4-5-1h-12l-12 3-16 8-18 13-4 1-4-2-3-6 2-6 8-7 17-11 16-7z" fill="#383838"/>
<path transform="translate(353,345)" d="m0 0h8l10 3 9 6 7 9 3 9v14l-3 9-8 10-10 6-8 2h-8l-8-2-8-4v-2l11-6 16-3 6-4 4-6 1-4v-7l-3-8-9-6h-12l-6 3-5 6-6 9-10 4-1-1v-11l7-14 8-7 9-4z" fill="#383838"/>
<path transform="translate(383,309)" d="m0 0h16v6l-15 1-2-5z" fill="#383838"/>
<path transform="translate(338,309)" d="m0 0h15l1 5-1 1h-16v-5z" fill="#383838"/>
<path transform="translate(327,309)" d="m0 0 5 1-1 5-6 3-4 3-4-1 1-4 4-5z" fill="#383838"/>
<path transform="translate(565,625)" d="m0 0h2l2 4-7 8-5 3-2-1 1-6z" fill="#383838"/>
<path transform="translate(597,593)" d="m0 0 4 2-1 4-8 8-3 1-2-4 3-5z" fill="#383838"/>
<path transform="translate(405,309)" d="m0 0h16v6l-15 1-1-1z" fill="#383838"/>
<path transform="translate(360,309)" d="m0 0h15l1 1v5l-14 1-2-1z" fill="#383838"/>
<path transform="translate(581,609)" d="m0 0 4 2-2 5-7 7-3 1-2-2 1-5z" fill="#383838"/>
<path transform="translate(311,324)" d="m0 0h5l-2 5-8 8-5-2 1-4 7-6z" fill="#383838"/>
<path transform="translate(476,642)" d="m0 0 5 2 7 7-1 6-4-2-8-7-1-3z" fill="#383838"/>
<path transform="translate(550,641)" d="m0 0 2 2-1 5-8 8-4-1 1-6 7-6z" fill="#383838"/>
<path transform="translate(428,309)" d="m0 0h9l4 3 1 6-4 1-2-2-8-3z" fill="#383838"/>
<path transform="translate(653,528)" d="m0 0 5 2 4 4-1 4-6 5h-2l-1-4v-10z" fill="#383838"/>
<path transform="translate(533,658)" d="m0 0 3 1-1 5-7 7-4 1-1-1v-5z" fill="#383838"/>
<path transform="translate(461,626)" d="m0 0 5 3 6 6-1 6-4-2-8-7 1-5z" fill="#383838"/>
<path transform="translate(413,578)" d="m0 0 3 1v2l4 2 4 4-1 6-4-2-8-7 1-5z" fill="#383838"/>
<path transform="translate(396,563)" d="m0 0 5 1 7 7-1 6-4-2-8-7-1-3z" fill="#383838"/>
<path transform="translate(636,512)" d="m0 0 5 1 7 7 2 5-5 1-9-9z" fill="#383838"/>
<path transform="translate(613,577)" d="m0 0h3l1 4-7 8-2 2-4-1 1-6z" fill="#383838"/>
<path transform="translate(646,544)" d="m0 0 3 1-1 6-9 8-3-3 1-4z" fill="#383838"/>
<path transform="translate(364,531)" d="m0 0 4 1 6 5v2h2v5l-3 1-2-1v-2l-3-1-5-6z" fill="#383838"/>
<path transform="translate(348,515)" d="m0 0 4 1 8 7v5h-4l-8-7-1-5z" fill="#383838"/>
<path transform="translate(316,483)" d="m0 0 4 1 8 7v5h-4l-5-4v-2h-2l-2-3z" fill="#383838"/>
<path transform="translate(557,433)" d="m0 0 5 1 8 8-1 4h-4l-9-9z" fill="#383838"/>
<path transform="translate(540,417)" d="m0 0 6 1 6 6v2h2l-1 4h-4l-9-9z" fill="#383838"/>
<path transform="translate(493,369)" d="m0 0 5 1 8 8-1 5-4-1-8-8-1-4z" fill="#383838"/>
<path transform="translate(294,340)" d="m0 0h6l-1 4-9 10h-2l-1-6 4-6z" fill="#383838"/>
<path transform="translate(445,321)" d="m0 0 5 1 7 7 1 6-5-1-8-8-1-3z" fill="#383838"/>
<path transform="translate(445,610)" d="m0 0 8 6 3 3-1 6-4-2-8-7 1-5z" fill="#383838"/>
<path transform="translate(429,594)" d="m0 0 5 3 4 4v2h2l-1 6-4-2-7-6-1-5z" fill="#383838"/>
<path transform="translate(629,561)" d="m0 0h3v2l2 1-7 8-4 3h-2l-1-6z" fill="#383838"/>
<path transform="translate(509,385)" d="m0 0 5 1v2l4 2 4 4-1 4h-4l-9-9z" fill="#383838"/>
<path transform="translate(461,337)" d="m0 0 5 1 7 7 1 5-4 1-9-9-1-3z" fill="#383838"/>
<path transform="translate(507,675)" d="m0 0h12l1 4-4 5-6-1-4-5z" fill="#383838"/>
<path transform="translate(492,658)" d="m0 0 4 2 6 5 2 3-1 5-5-3-6-5-2-4z" fill="#383838"/>
<path transform="translate(589,464)" d="m0 0 5 2 8 9-4 4-10-10z" fill="#383838"/>
<path transform="translate(332,499)" d="m0 0 4 1 6 5v2h2v5h-4l-9-9z" fill="#383838"/>
<path transform="translate(620,496)" d="m0 0 4 1 8 7 1 5-4 1-9-9z" fill="#383838"/>
<path transform="translate(606,480)" d="m0 0 6 4 6 6-2 4-4-1-8-8 1-4z" fill="#383838"/>
<path transform="translate(300,467)" d="m0 0 4 1 6 5 2 3-1 5-4-2-7-6-1-5z" fill="#383838"/>
<path transform="translate(525,401)" d="m0 0 5 1 6 6v2h2l-1 4-2 1-8-7-3-3z" fill="#383838"/>
<path transform="translate(477,353)" d="m0 0 5 1v2l4 2 4 5-1 4-5-2-7-7-1-3z" fill="#383838"/>
<path transform="translate(287,359)" d="m0 0 5 1v16l-4 1-1-1z" fill="#383838"/>
<path transform="translate(572,449)" d="m0 0 6 1 7 8-1 4-4-1-8-8z" fill="#383838"/>
<path transform="translate(288,449)" d="m0 0 4 1 3 9 1 5-3 1-5-5-1-10z" fill="#383838"/>
<path transform="translate(287,427)" d="m0 0 5 1v16l-5-1z" fill="#383838"/>
<path transform="translate(380,547)" d="m0 0 4 1 5 5 3 2-1 6-4-2-6-5-2-3z" fill="#383838"/>
<path transform="translate(287,413)" d="m0 0h5v9h-4z" fill="#383838"/>
</svg>
