<?xml version="1.0" encoding="UTF-8"?>
<svg version="1.1" viewBox="0 0 1440 1440" width="360" height="360" xmlns="http://www.w3.org/2000/svg">
<path transform="translate(315,435)" d="m0 0h788l1 1v137h105l22 3 23 7 23 11 12 8 14 11 14 14 11 15 8 13 8 16 7 21 3 14 2 19 1 100 7 8 4 9 1 4v70l-1 1h-174l-4-26-5-15-7-14-8-11-11-12-15-11-16-8-11-4-17-3h-19l-18 3-18 5h-223l-292-1-17-5-12-2h-20l-17 3-19 5h-31l-137-1-1-2v-7l1-4 16-1 33-1 8-3 5-6 3-6v-10l-4-8-6-5-4-2-140-1-7-3-8-9-2-6v-9l5-10 7-6 3-1 93-1 10-2 7-8 2-4v-13l-6-9-6-4-14-1h-174l-13-1-9-6-4-6-2-12 3-9 7-8 8-3 205-1 9-3 5-6 3-7v-9l-4-8-6-5-4-2-51-1-9-2-6-4-6-8-1-3v-11l4-9 8-6 8-2h18l23-1 8-4 5-6 2-4v-12l-4-8-8-6-13-1-103-1-10-5-5-8-1-3v-12l3-6 4-5 7-4 5-1h102l1-9 6-9 6-5z"  fill="#f61853"/>
<path transform="translate(548,827)" d="m0 0 485 1-5 5-13 11-8 9-8 13-6 12-5 16-2 12-1 10-2 1h-387l-2-1-2-19-4-15-7-16-7-11-11-13-11-9-5-5z" fill="#f61853"/>
<path transform="translate(478,828)" d="m0 0h22l18 4 14 6 11 7 10 9 9 10 8 14 6 15 3 17v13l-4 20-7 16-7 11-11 12-9 7-14 8-13 5-10 2h-28l-18-5-16-8-14-11-11-13-6-10-6-16-3-15v-19l3-16 6-15 9-14 9-10 14-11 16-8z" fill="#f61853"/>
<path transform="translate(1078,828)" d="m0 0h22l17 4 12 5 12 7 11 9 9 11 8 13 6 16 2 10 1 16-3 21-6 16-9 14-9 10-8 7-13 8-11 5-11 3-6 1h-26l-19-5-17-9-10-8-10-10-7-11-7-15-4-14-1-9v-13l3-18 7-17 8-13 11-12 14-10 12-6 13-4z" fill="#f61853"/>
<path transform="translate(542,481)" d="m0 0h66l31 1 14 3 14 7 10 9 7 10 5 13 2 10v15l-4 16-5 10-9 10-10 7-12 5 2 5 10 16 13 22 10 17 5 8v2l-6 1-38-1-6-9-28-52-2-5h-31l1 66-18 1h-17l-5-1v-185z" fill="#F8F8F8"/>
<path transform="translate(1110,604)" d="m0 0h98l15 2 18 5 19 9 12 8 10 8 12 12 12 16 5 8v4l-15 5-12 7-10 9-8 14-3 9-60 1h-46l-1-3v-39l-1-9-6-9-10-6-8-2-12-1v69h-8l-1-1z" fill="#F8F8F8"/>
<path transform="translate(722,481)" d="m0 0h130l1 1v33l-1 1h-91l-1 40h91v35h-90v42h91l1 1v33l-96 1h-32l-4-1v-185z" fill="#F8F8F8"/>
<path transform="translate(885,481)" d="m0 0h130l1 1v33l-1 1h-91v40h90v34l-1 1h-88l-1 33v9h92v34l-95 1h-35l-2-1v-184z" fill="#F8F8F8"/>
<path transform="translate(382,481)" d="m0 0 131 1v34h-93l1 2v22l-1 16h91l1 3v30l-1 1-90 1v76l-34 1-6-1v-184z" fill="#F8F8F8"/>
<path transform="translate(276,828)" d="m0 0h157v2l-14 11-8 8-9 13-8 15-5 16-4 24h-27l-14-2-17-6-10-5-9-7-10-9-10-13-6-12-5-18-1-5z" fill="#f61853"/>
<path transform="translate(829,697)" d="m0 0h20l11 15 10 14 16 21 6 9v-58l1-1h19v94h-18l-7-8-13-18-14-19-11-16-2-1 1 5v56l-2 1-17-1-1-2v-90z" fill="#F8F8F8"/>
<path transform="translate(614,697)" d="m0 0h49l9 2 8 6 6 8 2 5 1 11-2 10-6 9-7 6-7 2-10 1h-23v33l-1 1h-18l-1-1z" fill="#F8F8F8"/>
<path transform="translate(702,697)" d="m0 0h47l10 2 8 5 6 7 3 7 1 10-2 11-5 8-7 6-8 3-13 1h-20v33l-1 1h-19z" fill="#F8F8F8"/>
<path transform="translate(967,696)" d="m0 0h19l10 3 11 7 6 7 1 4-11 6-4 1-11-8-10-3-10 1-10 5-7 8-3 8v18l6 12 7 6 7 3 9 1 13-3 5-4 1-2 1-10h-25v-16l43-1 1 1v31l-2 6-8 7-12 6-12 2h-12l-11-2-9-4-8-6-8-9-5-11-2-8v-17l4-13 7-10 10-9 10-5z" fill="#F8F8F8"/>
<path transform="translate(482,879)" d="m0 0h16l11 4 9 7 6 9 3 7 1 5v11l-3 10-5 8-4 5-9 6-11 3h-14l-11-4-10-9-5-7-4-13v-10l4-12 6-9 11-8z" fill="#F8F8F8"/>
<path transform="translate(1081,879)" d="m0 0h17l12 5 10 9 6 12 2 11-1 10-6 12-6 7-9 6-10 3h-13l-10-3-9-6-7-8-4-8-1-4v-18l4-9 6-8 8-7z" fill="#F8F8F8"/>
<path transform="translate(472,697)" d="m0 0h20v38l8-1h36l1-37h19v94h-19v-40l-45 1v39h-18l-2-1z" fill="#F8F8F8"/>
<path transform="translate(412,696)" d="m0 0h16l14 3 11 6 2 2-1 5-6 9-2 2-10-6-13-4h-9l-6 3-4 5 2 5 7 4 26 7 10 5 6 7 3 6v14l-3 8-8 9-12 5-8 1h-12l-12-2-13-5-8-6 2-5 6-10 6 1 8 6 13 4h8l11-3 2-4 1-4-4-6-22-6-14-5-8-6-4-5-3-9 1-10 5-9 8-7 9-4z" fill="#F8F8F8"/>
<path transform="translate(580,516)" d="m0 0h50l10 4 6 5 4 8 1 3v10l-4 10-5 6-5 3-11 2h-46z" fill="#f61853"/>
<path transform="translate(156,546)" d="m0 0h26l9 3 6 7 3 7v11l-6 10-8 5-9 2h-20l-9-3-8-7-3-7v-12l4-8 8-6z" fill="#f61853"/>
<path transform="translate(790,697)" d="m0 0h19v93l-1 1h-16l-2-1-1-91z" fill="#F8F8F8"/>
<path transform="translate(576,697)" d="m0 0h19v93l-4 1h-13l-2-1-1-4z" fill="#F8F8F8"/>
<path transform="translate(118,459)" d="m0 0h7l8 3 7 7 3 7v10l-3 7-4 5-9 5h-11l-10-5-6-10-1-8 2-8 4-6 6-5z" fill="#f61853"/>
<path transform="translate(721,714)" d="m0 0h27l6 3 3 6v8l-3 5-5 4h-28z" fill="#f61853"/>
<path transform="translate(633,714)" d="m0 0h26l7 3 3 8-1 9-5 5-3 1h-26l-1-1z" fill="#f61853" />
<path transform="translate(1111,731)" d="m0 0h54l1 3-1 5h-54z" fill="#F8F8F8"/>
</svg>
