<svg width="37" height="36" viewBox="0 0 37 36" fill="none" xmlns="http://www.w3.org/2000/svg">
<path d="M26.9994 8.28516C27.6697 8.28516 28.2137 8.82916 28.2137 9.49944C28.2137 10.1697 27.6697 10.7137 26.9994 10.7137C26.3292 10.7137 25.7852 10.1697 25.7852 9.49944C25.7852 8.82916 26.3292 8.28516 26.9994 8.28516Z" fill="#3C3C3C"/>
<path d="M18.5 1C27.8889 1 35.5 8.61114 35.5 18C35.5 27.3889 27.8889 35 18.5 35C9.11114 35 1.5 27.3889 1.5 18C1.5 8.61114 9.11114 1 18.5 1Z" stroke="#3C3C3C" stroke-width="2"/>
<path d="M25.4621 19.2148C24.8657 19.2148 24.3646 19.6412 24.1485 20.1971C23.5336 21.7793 22.2757 23.0414 20.692 23.6565C20.139 23.8712 19.7148 24.3695 19.7148 24.9627V26.0797C19.7148 26.2516 19.8687 26.3917 20.0378 26.3609V26.3609C23.535 25.7222 26.2853 22.9378 26.8803 19.4322V19.4322C26.8996 19.3184 26.7958 19.2148 26.6803 19.2148H25.4621Z" fill="#3C3C3C"/>
<path d="M26.884 16.7856C26.2817 13.2083 23.4718 10.4082 19.8933 9.81804V9.81804C19.8002 9.80252 19.7148 9.88936 19.7148 9.9838V11.2481C19.7148 11.8418 20.1394 12.3404 20.6933 12.5542C22.281 13.1672 23.5386 14.4234 24.1522 16.0112C24.3664 16.5657 24.8656 16.9908 25.4601 16.9908H26.695C26.8037 16.9908 26.9015 16.8929 26.884 16.7856V16.7856Z" fill="#3C3C3C"/>
<path d="M17.2868 24.9622C17.2868 24.3657 16.8603 23.8647 16.3042 23.6491C14.7198 23.0352 13.4632 21.7807 12.8498 20.195C12.6352 19.6403 12.1357 19.2148 11.541 19.2148H10.3457C10.2187 19.2148 10.1049 19.3289 10.1261 19.4541V19.4541C10.7393 23.0095 13.5419 25.7951 17.0998 26.3852V26.3852C17.1978 26.4009 17.2868 26.3125 17.2868 26.2132V24.9622Z" fill="#3C3C3C"/>
<path d="M11.5441 16.7858C12.1372 16.7858 12.6355 16.3618 12.8492 15.8086C13.4622 14.2213 14.7181 12.9575 16.3088 12.3424C16.8604 12.1291 17.2833 11.6324 17.2833 11.041V9.95113C17.2833 9.77066 17.1207 9.60902 16.9433 9.64216V9.64216C13.4 10.2979 10.6496 13.1296 10.0971 16.6923V16.6923C10.0893 16.741 10.1343 16.7858 10.1837 16.7858H11.5441Z" fill="#3C3C3C"/>
<path d="M18.4989 15.5703C19.8407 15.5703 20.9275 16.6571 20.9275 17.9989C20.9275 19.3407 19.8407 20.4275 18.4989 20.4275C17.1571 20.4275 16.0703 19.3407 16.0703 17.9989C16.0703 16.6571 17.1571 15.5703 18.4989 15.5703Z" stroke="#3C3C3C" stroke-width="2"/>
</svg>
