<svg width="20" height="21" viewBox="0 0 20 21" fill="none" xmlns="http://www.w3.org/2000/svg">
<path d="M2.66016 16.0048C2.66016 15.8301 2.71477 15.6881 2.82399 15.5789C2.93321 15.4696 3.0752 15.415 3.24996 15.415H16.7498C16.9246 15.415 17.0775 15.4696 17.2086 15.5789C17.3396 15.6881 17.4052 15.8301 17.4052 16.0048C17.4052 16.1796 17.3396 16.3325 17.2086 16.4636C17.0775 16.5946 16.9246 16.6602 16.7498 16.6602H3.24996C3.0752 16.6602 2.93321 16.5946 2.82399 16.4636C2.71477 16.3325 2.66016 16.1796 2.66016 16.0048ZM2.66016 12.335C2.66016 12.1602 2.71477 12.0182 2.82399 11.909C2.93321 11.7998 3.0752 11.7452 3.24996 11.7452H16.7498C16.9246 11.7452 17.0775 11.7998 17.2086 11.909C17.3396 12.0182 17.4052 12.1602 17.4052 12.335C17.4052 12.5097 17.3396 12.6626 17.2086 12.7937C17.0775 12.9248 16.9246 12.9903 16.7498 12.9903H3.24996C3.0752 12.9903 2.93321 12.9248 2.82399 12.7937C2.71477 12.6626 2.66016 12.5097 2.66016 12.335ZM2.66016 8.66509C2.66016 8.49033 2.71477 8.33742 2.82399 8.20636C2.93321 8.07529 3.0752 8.00976 3.24996 8.00976H16.7498C16.9246 8.00976 17.0775 8.07529 17.2086 8.20636C17.3396 8.33742 17.4052 8.49033 17.4052 8.66509C17.4052 8.83985 17.3396 8.98183 17.2086 9.09106C17.0775 9.20028 16.9246 9.25489 16.7498 9.25489H3.24996C3.0752 9.25489 2.93321 9.20028 2.82399 9.09106C2.71477 8.98183 2.66016 8.83985 2.66016 8.66509ZM2.66016 4.99522C2.66016 4.82047 2.71477 4.66756 2.82399 4.53649C2.93321 4.40542 3.0752 4.33989 3.24996 4.33989H16.7498C16.9246 4.33989 17.0775 4.40542 17.2086 4.53649C17.3396 4.66756 17.4052 4.82047 17.4052 4.99522C17.4052 5.16998 17.3396 5.31197 17.2086 5.42119C17.0775 5.53041 16.9246 5.58502 16.7498 5.58502H3.24996C3.0752 5.58502 2.93321 5.53041 2.82399 5.42119C2.71477 5.31197 2.66016 5.16998 2.66016 4.99522Z" fill="#383375"/>
</svg>
