<svg width="140" height="27" viewBox="0 0 140 27" fill="none" xmlns="http://www.w3.org/2000/svg">
<g clip-path="url(#clip0_4016_15540)">
<path d="M22.2119 13.5533C22.2119 12.0956 21.8564 10.7533 21.1452 9.52667C20.4341 8.3 19.4652 7.32222 18.2386 6.59333C17.0119 5.86444 15.6697 5.5 14.2119 5.5C12.7541 5.5 11.4119 5.86444 10.1852 6.59333C8.95858 7.32222 7.98969 8.3 7.27858 9.52667C6.56747 10.7533 6.21191 12.0956 6.21191 13.5533C6.21191 14.8689 6.50525 16.0956 7.09191 17.2333C7.67858 18.3711 8.48747 19.3133 9.51858 20.06C10.5497 20.8067 11.7052 21.2867 12.9852 21.5V15.9H10.9052V13.5533H12.9852V11.7933C12.9852 10.7978 13.2519 10.0244 13.7852 9.47333C14.3186 8.92222 15.0475 8.64667 15.9719 8.64667C16.3275 8.64667 16.7364 8.66444 17.1986 8.7L17.7852 8.80667V10.78H16.7719C16.3097 10.78 15.9719 10.8956 15.7586 11.1267C15.5452 11.3578 15.4386 11.6689 15.4386 12.06V13.5533H17.6786L17.3052 15.9H15.4386V21.5C16.7186 21.2867 17.8741 20.8067 18.9052 20.06C19.9364 19.3133 20.7452 18.3711 21.3319 17.2333C21.9186 16.0956 22.2119 14.8689 22.2119 13.5533Z" fill="#212529"/>
</g>
<g clip-path="url(#clip1_4016_15540)">
<path d="M46.5867 6.24675H49.04L43.7067 12.3801L50 20.7534H45.04L41.2 15.6868L36.7733 20.7534H34.32L40.0267 14.1934L34 6.24675H39.0667L42.5333 10.8868L46.5867 6.24675ZM45.7333 19.2601H47.12L38.32 7.63342H36.88L45.7333 19.2601Z" fill="#212529"/>
</g>
<g clip-path="url(#clip2_4016_15540)">
<path d="M64.0267 5.5C63.4578 5.5 62.9778 5.69556 62.5867 6.08667C62.1956 6.47778 62 6.95778 62 7.52667V19.4733C62 20.0422 62.1956 20.5222 62.5867 20.9133C62.9778 21.3044 63.44 21.5 63.9733 21.5H76.0267C76.56 21.5 77.0222 21.3044 77.4133 20.9133C77.8044 20.5222 78 20.0422 78 19.4733V7.47333C78 6.94 77.8044 6.47778 77.4133 6.08667C77.0222 5.69556 76.5422 5.5 75.9733 5.5H64.0267ZM65.52 8.00667C67.3333 8.00667 69.0044 8.45111 70.5333 9.34C72.0622 10.2289 73.2711 11.4378 74.16 12.9667C75.0489 14.4956 75.4933 16.1667 75.4933 17.98C75.4933 18.2644 75.3956 18.5044 75.2 18.7C75.0044 18.8956 74.7733 18.9933 74.5067 18.9933C74.24 18.9933 74.0089 18.8956 73.8133 18.7C73.6178 18.5044 73.52 18.2644 73.52 17.98C73.52 16.5578 73.1556 15.2333 72.4267 14.0067C71.6978 12.78 70.72 11.8022 69.4933 11.0733C68.2667 10.3444 66.9422 9.98 65.52 9.98C65.2356 9.98 64.9956 9.88222 64.8 9.68667C64.6044 9.49111 64.5067 9.26 64.5067 8.99333C64.5067 8.72667 64.6044 8.49556 64.8 8.3C64.9956 8.10444 65.2356 8.00667 65.52 8.00667ZM65.52 12.0067C66.5867 12.0067 67.5822 12.2733 68.5067 12.8067C69.4311 13.34 70.16 14.0689 70.6933 14.9933C71.2267 15.9178 71.4933 16.9133 71.4933 17.98C71.4933 18.2644 71.3956 18.5044 71.2 18.7C71.0044 18.8956 70.7733 18.9933 70.5067 18.9933C70.24 18.9933 70.0089 18.8956 69.8133 18.7C69.6178 18.5044 69.52 18.2644 69.52 17.98C69.52 17.2689 69.3333 16.6111 68.96 16.0067C68.5867 15.4022 68.0978 14.9133 67.4933 14.54C66.8889 14.1667 66.2311 13.98 65.52 13.98C65.2356 13.98 64.9956 13.8822 64.8 13.6867C64.6044 13.4911 64.5067 13.26 64.5067 12.9933C64.5067 12.7267 64.6044 12.4956 64.8 12.3C64.9956 12.1044 65.2356 12.0067 65.52 12.0067ZM66 18.9933C65.5733 18.9933 65.2178 18.8511 64.9333 18.5667C64.6489 18.2822 64.5067 17.9267 64.5067 17.5C64.5067 17.0733 64.6489 16.7178 64.9333 16.4333C65.2178 16.1489 65.5733 16.0067 66 16.0067C66.4267 16.0067 66.7822 16.1489 67.0667 16.4333C67.3511 16.7178 67.4933 17.0733 67.4933 17.5C67.4933 17.9267 67.3511 18.2822 67.0667 18.5667C66.7822 18.8511 66.4267 18.9933 66 18.9933Z" fill="#212529"/>
</g>
<path d="M98.0533 7.47372H98.16C99.1911 7.50927 100.169 7.54483 101.093 7.58038C102.729 7.61594 103.778 7.70483 104.24 7.84705C104.596 7.91816 104.898 8.08705 105.147 8.35372C105.396 8.62038 105.564 8.92261 105.653 9.26038C105.742 9.59816 105.822 10.0693 105.893 10.6737L105.947 11.1004C105.982 11.7759 106 12.4337 106 13.0737V13.1804C106 13.8559 105.964 14.5315 105.893 15.2071V15.4204C105.822 16.0959 105.742 16.6115 105.653 16.9671C105.564 17.3226 105.396 17.6248 105.147 17.8737C104.898 18.1226 104.596 18.3004 104.24 18.4071C103.742 18.5493 102.64 18.6382 100.933 18.6737C99.9733 18.7093 99.0133 18.7271 98.0533 18.7271H97.9467C96.9867 18.7271 96.0089 18.7093 95.0133 18.6737H94.4267C93.0756 18.6026 92.2044 18.5137 91.8133 18.4071C91.4222 18.3004 91.1022 18.1226 90.8533 17.8737C90.6044 17.6248 90.4267 17.3226 90.32 16.9671C90.2133 16.6115 90.1422 16.0959 90.1067 15.4204V15.2071C90.0356 14.5315 90 13.8559 90 13.1804V13.0737C90 12.4337 90.0178 11.8293 90.0533 11.2604L90.1067 10.6737C90.1778 10.0693 90.2578 9.59816 90.3467 9.26038C90.4356 8.92261 90.6044 8.62038 90.8533 8.35372C91.1022 8.08705 91.4044 7.91816 91.76 7.84705C92.1867 7.74038 93.0756 7.6515 94.4267 7.58038L95.0133 7.52705C95.9733 7.52705 96.9156 7.50927 97.84 7.47372H98.0533ZM96.4 10.7271V15.5271L100.56 13.1271L96.4 10.7271Z" fill="#212529"/>
<g clip-path="url(#clip3_4016_15540)">
<path d="M126 5.5C124.507 5.5 123.396 5.51778 122.667 5.55333C121.938 5.58889 121.307 5.71333 120.773 5.92667C120.24 6.14 119.769 6.45111 119.36 6.86C118.951 7.26889 118.64 7.74 118.427 8.27333C118.213 8.80667 118.089 9.43778 118.053 10.1667C118.018 10.8956 118 12.0067 118 13.5C118 14.9933 118.018 16.1044 118.053 16.8333C118.089 17.5622 118.213 18.1933 118.427 18.7267C118.64 19.26 118.951 19.7311 119.36 20.14C119.769 20.5489 120.24 20.86 120.773 21.0733C121.307 21.2867 121.938 21.4111 122.667 21.4467C123.396 21.4822 124.507 21.5 126 21.5C127.493 21.5 128.604 21.4822 129.333 21.4467C130.062 21.4111 130.693 21.2867 131.227 21.0733C131.76 20.86 132.231 20.5489 132.64 20.14C133.049 19.7311 133.36 19.26 133.573 18.7267C133.787 18.1933 133.911 17.5622 133.947 16.8333C133.982 16.1044 134 14.9933 134 13.5C134 12.0067 133.982 10.8956 133.947 10.1667C133.911 9.43778 133.787 8.80667 133.573 8.27333C133.36 7.74 133.049 7.26889 132.64 6.86C132.231 6.45111 131.76 6.14 131.227 5.92667C130.693 5.71333 130.062 5.58889 129.333 5.55333C128.604 5.51778 127.493 5.5 126 5.5ZM125.307 6.94H126C127.493 6.94 128.578 6.95778 129.253 6.99333C129.822 7.02889 130.293 7.11778 130.667 7.26C131.04 7.40222 131.36 7.60667 131.627 7.87333C131.893 8.14 132.098 8.46 132.24 8.83333C132.382 9.20667 132.471 9.67778 132.507 10.2467C132.542 10.9222 132.56 12.0067 132.56 13.5C132.56 14.9933 132.542 16.0778 132.507 16.7533C132.471 17.3222 132.382 17.7933 132.24 18.1667C132.098 18.54 131.893 18.86 131.627 19.1267C131.36 19.3933 131.04 19.5978 130.667 19.74C130.293 19.8822 129.822 19.9711 129.253 20.0067C128.542 20.0422 127.458 20.06 126 20.06C124.542 20.06 123.458 20.0422 122.747 20.0067C122.178 19.9711 121.707 19.8822 121.333 19.74C120.96 19.5978 120.64 19.3933 120.373 19.1267C120.107 18.86 119.902 18.54 119.76 18.1667C119.618 17.7933 119.529 17.3222 119.493 16.7533C119.458 16.0422 119.44 14.9489 119.44 13.4733C119.44 11.9978 119.458 10.9222 119.493 10.2467C119.529 9.67778 119.618 9.20667 119.76 8.83333C119.902 8.46 120.107 8.14 120.373 7.87333C120.64 7.60667 120.96 7.40222 121.333 7.26C121.707 7.11778 122.196 7.02889 122.8 6.99333C123.404 6.95778 124.24 6.94 125.307 6.94ZM130.267 8.27333C130.018 8.27333 129.796 8.36222 129.6 8.54C129.404 8.71778 129.307 8.94 129.307 9.20667C129.307 9.47333 129.404 9.70444 129.6 9.9C129.796 10.0956 130.027 10.1933 130.293 10.1933C130.56 10.1933 130.782 10.0956 130.96 9.9C131.138 9.70444 131.227 9.47333 131.227 9.20667C131.227 8.94 131.138 8.71778 130.96 8.54C130.782 8.36222 130.551 8.27333 130.267 8.27333ZM126 9.39333C125.253 9.39333 124.56 9.57111 123.92 9.92667C123.28 10.2822 122.773 10.78 122.4 11.42C122.027 12.06 121.84 12.7533 121.84 13.5C121.84 14.2467 122.027 14.94 122.4 15.58C122.773 16.22 123.28 16.7178 123.92 17.0733C124.56 17.4289 125.253 17.6067 126 17.6067C126.747 17.6067 127.431 17.42 128.053 17.0467C128.676 16.6733 129.164 16.1756 129.52 15.5533C129.876 14.9311 130.053 14.2467 130.053 13.5C130.053 12.7533 129.876 12.0689 129.52 11.4467C129.164 10.8244 128.676 10.3267 128.053 9.95333C127.431 9.58 126.747 9.39333 126 9.39333ZM126 10.8333C126.462 10.8333 126.907 10.9489 127.333 11.18C127.76 11.4111 128.089 11.74 128.32 12.1667C128.551 12.5933 128.667 13.0378 128.667 13.5C128.667 13.9622 128.551 14.4067 128.32 14.8333C128.089 15.26 127.76 15.5889 127.333 15.82C126.907 16.0511 126.462 16.1667 126 16.1667C125.253 16.1667 124.622 15.9089 124.107 15.3933C123.591 14.8778 123.333 14.2467 123.333 13.5C123.333 12.7533 123.591 12.1222 124.107 11.6067C124.622 11.0911 125.253 10.8333 126 10.8333Z" fill="#212529"/>
</g>
<defs>
<clipPath id="clip0_4016_15540">
<rect width="16" height="16" fill="white" transform="matrix(1 0 0 -1 6 21.5)"/>
</clipPath>
<clipPath id="clip1_4016_15540">
<rect width="16" height="16" fill="white" transform="matrix(1 0 0 -1 34 21.5)"/>
</clipPath>
<clipPath id="clip2_4016_15540">
<rect width="16" height="16" fill="white" transform="matrix(1 0 0 -1 62 21.5)"/>
</clipPath>
<clipPath id="clip3_4016_15540">
<rect width="16" height="16" fill="white" transform="matrix(1 0 0 -1 118 21.5)"/>
</clipPath>
</defs>
</svg>
