<svg width="218" height="44" viewBox="0 0 218 44" fill="none" xmlns="http://www.w3.org/2000/svg">
<rect x="2.5" y="2.5" width="39" height="39" rx="19.5" stroke="#E5E5E5"/>
<g clip-path="url(#clip0_4016_120)">
<path d="M29 21.2967C29 20.0211 28.6889 18.8467 28.0667 17.7733C27.4444 16.7 26.5967 15.8444 25.5233 15.2067C24.45 14.5689 23.2756 14.25 22 14.25C20.7244 14.25 19.55 14.5689 18.4767 15.2067C17.4033 15.8444 16.5556 16.7 15.9333 17.7733C15.3111 18.8467 15 20.0211 15 21.2967C15 22.4478 15.2567 23.5211 15.77 24.5167C16.2833 25.5122 16.9911 26.3367 17.8933 26.99C18.7956 27.6433 19.8067 28.0633 20.9267 28.25V23.35H19.1067V21.2967H20.9267V19.7567C20.9267 18.8856 21.16 18.2089 21.6267 17.7267C22.0933 17.2444 22.7311 17.0033 23.54 17.0033C23.8511 17.0033 24.2089 17.0189 24.6133 17.05L25.1267 17.1433V18.87H24.24C23.8356 18.87 23.54 18.9711 23.3533 19.1733C23.1667 19.3756 23.0733 19.6478 23.0733 19.99V21.2967H25.0333L24.7067 23.35H23.0733V28.25C24.1933 28.0633 25.2044 27.6433 26.1067 26.99C27.0089 26.3367 27.7167 25.5122 28.23 24.5167C28.7433 23.5211 29 22.4478 29 21.2967Z" fill="#585858"/>
</g>
<rect x="46.5" y="2.5" width="39" height="39" rx="19.5" stroke="#E5E5E5"/>
<g clip-path="url(#clip1_4016_120)">
<path d="M70.0133 14.9024H72.16L67.4933 20.269L73 27.5957H68.66L65.3 23.1624L61.4267 27.5957H59.28L64.2733 21.8557L59 14.9024H63.4333L66.4667 18.9624L70.0133 14.9024ZM69.2667 26.289H70.48L62.78 16.1157H61.52L69.2667 26.289Z" fill="#585858"/>
</g>
<rect x="90.5" y="2.5" width="39" height="39" rx="19.5" stroke="#E5E5E5"/>
<g clip-path="url(#clip2_4016_120)">
<path d="M104.773 14.25C104.276 14.25 103.856 14.4211 103.513 14.7633C103.171 15.1056 103 15.5256 103 16.0233V26.4767C103 26.9744 103.171 27.3944 103.513 27.7367C103.856 28.0789 104.26 28.25 104.727 28.25H115.273C115.74 28.25 116.144 28.0789 116.487 27.7367C116.829 27.3944 117 26.9744 117 26.4767V15.9767C117 15.51 116.829 15.1056 116.487 14.7633C116.144 14.4211 115.724 14.25 115.227 14.25H104.773ZM106.08 16.4433C107.667 16.4433 109.129 16.8322 110.467 17.61C111.804 18.3878 112.862 19.4456 113.64 20.7833C114.418 22.1211 114.807 23.5833 114.807 25.17C114.807 25.4189 114.721 25.6289 114.55 25.8C114.379 25.9711 114.177 26.0567 113.943 26.0567C113.71 26.0567 113.508 25.9711 113.337 25.8C113.166 25.6289 113.08 25.4189 113.08 25.17C113.08 23.9256 112.761 22.7667 112.123 21.6933C111.486 20.62 110.63 19.7644 109.557 19.1267C108.483 18.4889 107.324 18.17 106.08 18.17C105.831 18.17 105.621 18.0844 105.45 17.9133C105.279 17.7422 105.193 17.54 105.193 17.3067C105.193 17.0733 105.279 16.8711 105.45 16.7C105.621 16.5289 105.831 16.4433 106.08 16.4433ZM106.08 19.9433C107.013 19.9433 107.884 20.1767 108.693 20.6433C109.502 21.11 110.14 21.7478 110.607 22.5567C111.073 23.3656 111.307 24.2367 111.307 25.17C111.307 25.4189 111.221 25.6289 111.05 25.8C110.879 25.9711 110.677 26.0567 110.443 26.0567C110.21 26.0567 110.008 25.9711 109.837 25.8C109.666 25.6289 109.58 25.4189 109.58 25.17C109.58 24.5478 109.417 23.9722 109.09 23.4433C108.763 22.9144 108.336 22.4867 107.807 22.16C107.278 21.8333 106.702 21.67 106.08 21.67C105.831 21.67 105.621 21.5844 105.45 21.4133C105.279 21.2422 105.193 21.04 105.193 20.8067C105.193 20.5733 105.279 20.3711 105.45 20.2C105.621 20.0289 105.831 19.9433 106.08 19.9433ZM106.5 26.0567C106.127 26.0567 105.816 25.9322 105.567 25.6833C105.318 25.4344 105.193 25.1233 105.193 24.75C105.193 24.3767 105.318 24.0656 105.567 23.8167C105.816 23.5678 106.127 23.4433 106.5 23.4433C106.873 23.4433 107.184 23.5678 107.433 23.8167C107.682 24.0656 107.807 24.3767 107.807 24.75C107.807 25.1233 107.682 25.4344 107.433 25.6833C107.184 25.9322 106.873 26.0567 106.5 26.0567Z" fill="#585858"/>
</g>
<rect x="134.5" y="2.5" width="39" height="39" rx="19.5" stroke="#E5E5E5"/>
<path d="M154.047 15.9776H154.14C155.042 16.0087 155.898 16.0398 156.707 16.0709C158.138 16.102 159.056 16.1798 159.46 16.3042C159.771 16.3664 160.036 16.5142 160.253 16.7476C160.471 16.9809 160.619 17.2453 160.697 17.5409C160.774 17.8364 160.844 18.2487 160.907 18.7776L160.953 19.1509C160.984 19.742 161 20.3176 161 20.8776V20.9709C161 21.562 160.969 22.1531 160.907 22.7442V22.9309C160.844 23.522 160.774 23.9731 160.697 24.2842C160.619 24.5953 160.471 24.8598 160.253 25.0776C160.036 25.2953 159.771 25.4509 159.46 25.5442C159.024 25.6687 158.06 25.7464 156.567 25.7776C155.727 25.8087 154.887 25.8242 154.047 25.8242H153.953C153.113 25.8242 152.258 25.8087 151.387 25.7776H150.873C149.691 25.7153 148.929 25.6376 148.587 25.5442C148.244 25.4509 147.964 25.2953 147.747 25.0776C147.529 24.8598 147.373 24.5953 147.28 24.2842C147.187 23.9731 147.124 23.522 147.093 22.9309V22.7442C147.031 22.1531 147 21.562 147 20.9709V20.8776C147 20.3176 147.016 19.7887 147.047 19.2909L147.093 18.7776C147.156 18.2487 147.226 17.8364 147.303 17.5409C147.381 17.2453 147.529 16.9809 147.747 16.7476C147.964 16.5142 148.229 16.3664 148.54 16.3042C148.913 16.2109 149.691 16.1331 150.873 16.0709L151.387 16.0242C152.227 16.0242 153.051 16.0087 153.86 15.9776H154.047ZM152.6 18.8242V23.0242L156.24 20.9242L152.6 18.8242Z" fill="#585858"/>
<rect x="178.5" y="2.5" width="39" height="39" rx="19.5" stroke="#E5E5E5"/>
<g clip-path="url(#clip3_4016_120)">
<path d="M198 14.25C196.693 14.25 195.721 14.2656 195.083 14.2967C194.446 14.3278 193.893 14.4367 193.427 14.6233C192.96 14.81 192.548 15.0822 192.19 15.44C191.832 15.7978 191.56 16.21 191.373 16.6767C191.187 17.1433 191.078 17.6956 191.047 18.3333C191.016 18.9711 191 19.9433 191 21.25C191 22.5567 191.016 23.5289 191.047 24.1667C191.078 24.8044 191.187 25.3567 191.373 25.8233C191.56 26.29 191.832 26.7022 192.19 27.06C192.548 27.4178 192.96 27.69 193.427 27.8767C193.893 28.0633 194.446 28.1722 195.083 28.2033C195.721 28.2344 196.693 28.25 198 28.25C199.307 28.25 200.279 28.2344 200.917 28.2033C201.554 28.1722 202.107 28.0633 202.573 27.8767C203.04 27.69 203.452 27.4178 203.81 27.06C204.168 26.7022 204.44 26.29 204.627 25.8233C204.813 25.3567 204.922 24.8044 204.953 24.1667C204.984 23.5289 205 22.5567 205 21.25C205 19.9433 204.984 18.9711 204.953 18.3333C204.922 17.6956 204.813 17.1433 204.627 16.6767C204.44 16.21 204.168 15.7978 203.81 15.44C203.452 15.0822 203.04 14.81 202.573 14.6233C202.107 14.4367 201.554 14.3278 200.917 14.2967C200.279 14.2656 199.307 14.25 198 14.25ZM197.393 15.51H198C199.307 15.51 200.256 15.5256 200.847 15.5567C201.344 15.5878 201.757 15.6656 202.083 15.79C202.41 15.9144 202.69 16.0933 202.923 16.3267C203.157 16.56 203.336 16.84 203.46 17.1667C203.584 17.4933 203.662 17.9056 203.693 18.4033C203.724 18.9944 203.74 19.9433 203.74 21.25C203.74 22.5567 203.724 23.5056 203.693 24.0967C203.662 24.5944 203.584 25.0067 203.46 25.3333C203.336 25.66 203.157 25.94 202.923 26.1733C202.69 26.4067 202.41 26.5856 202.083 26.71C201.757 26.8344 201.344 26.9122 200.847 26.9433C200.224 26.9744 199.276 26.99 198 26.99C196.724 26.99 195.776 26.9744 195.153 26.9433C194.656 26.9122 194.243 26.8344 193.917 26.71C193.59 26.5856 193.31 26.4067 193.077 26.1733C192.843 25.94 192.664 25.66 192.54 25.3333C192.416 25.0067 192.338 24.5944 192.307 24.0967C192.276 23.4744 192.26 22.5178 192.26 21.2267C192.26 19.9356 192.276 18.9944 192.307 18.4033C192.338 17.9056 192.416 17.4933 192.54 17.1667C192.664 16.84 192.843 16.56 193.077 16.3267C193.31 16.0933 193.59 15.9144 193.917 15.79C194.243 15.6656 194.671 15.5878 195.2 15.5567C195.729 15.5256 196.46 15.51 197.393 15.51ZM201.733 16.6767C201.516 16.6767 201.321 16.7544 201.15 16.91C200.979 17.0656 200.893 17.26 200.893 17.4933C200.893 17.7267 200.979 17.9289 201.15 18.1C201.321 18.2711 201.523 18.3567 201.757 18.3567C201.99 18.3567 202.184 18.2711 202.34 18.1C202.496 17.9289 202.573 17.7267 202.573 17.4933C202.573 17.26 202.496 17.0656 202.34 16.91C202.184 16.7544 201.982 16.6767 201.733 16.6767ZM198 17.6567C197.347 17.6567 196.74 17.8122 196.18 18.1233C195.62 18.4344 195.177 18.87 194.85 19.43C194.523 19.99 194.36 20.5967 194.36 21.25C194.36 21.9033 194.523 22.51 194.85 23.07C195.177 23.63 195.62 24.0656 196.18 24.3767C196.74 24.6878 197.347 24.8433 198 24.8433C198.653 24.8433 199.252 24.68 199.797 24.3533C200.341 24.0267 200.769 23.5911 201.08 23.0467C201.391 22.5022 201.547 21.9033 201.547 21.25C201.547 20.5967 201.391 19.9978 201.08 19.4533C200.769 18.9089 200.341 18.4733 199.797 18.1467C199.252 17.82 198.653 17.6567 198 17.6567ZM198 18.9167C198.404 18.9167 198.793 19.0178 199.167 19.22C199.54 19.4222 199.828 19.71 200.03 20.0833C200.232 20.4567 200.333 20.8456 200.333 21.25C200.333 21.6544 200.232 22.0433 200.03 22.4167C199.828 22.79 199.54 23.0778 199.167 23.28C198.793 23.4822 198.404 23.5833 198 23.5833C197.347 23.5833 196.794 23.3578 196.343 22.9067C195.892 22.4556 195.667 21.9033 195.667 21.25C195.667 20.5967 195.892 20.0444 196.343 19.5933C196.794 19.1422 197.347 18.9167 198 18.9167Z" fill="#585858"/>
</g>
<defs>
<clipPath id="clip0_4016_120">
<rect width="14" height="14" fill="white" transform="matrix(1 0 0 -1 15 28.25)"/>
</clipPath>
<clipPath id="clip1_4016_120">
<rect width="14" height="14" fill="white" transform="matrix(1 0 0 -1 59 28.25)"/>
</clipPath>
<clipPath id="clip2_4016_120">
<rect width="14" height="14" fill="white" transform="matrix(1 0 0 -1 103 28.25)"/>
</clipPath>
<clipPath id="clip3_4016_120">
<rect width="14" height="14" fill="white" transform="matrix(1 0 0 -1 191 28.25)"/>
</clipPath>
</defs>
</svg>
