<svg width="33" height="34" viewBox="0 0 33 34" fill="none" xmlns="http://www.w3.org/2000/svg">
<path d="M16.5 0C17.13 0 17.6407 0.510726 17.6407 1.14074V4.56733L21.2536 2.49444C21.7956 2.18352 22.4869 2.36879 22.8006 2.90906V2.90906C23.1168 3.45347 22.9297 4.15121 22.3836 4.4644L17.6407 7.1842V15.0359L24.4852 11.1101V5.67407C24.4852 5.04406 24.9959 4.53333 25.6259 4.53333V4.53333C26.2559 4.53333 26.7667 5.04406 26.7667 5.67407V9.80107L29.7699 8.07971C30.3116 7.76924 31.0023 7.95443 31.316 8.49424V8.49424C31.6323 9.03855 31.4453 9.73631 30.8992 10.0495L27.9074 11.7651L31.5096 13.831C32.0557 14.1442 32.2428 14.8419 31.9266 15.3863V15.3863C31.6128 15.9266 30.9214 16.1118 30.3795 15.8009L25.6259 13.073L18.7815 16.9989L25.6271 20.9259L30.3802 18.1987C30.9218 17.8879 31.6127 18.073 31.9264 18.6129V18.6129C32.2427 19.1571 32.0557 19.8547 31.5097 20.1678L27.9074 22.2337L30.8995 23.9504C31.4455 24.2637 31.6324 24.9613 31.3161 25.5056V25.5056C31.0024 26.0454 30.3115 26.2306 29.7698 25.92L26.7667 24.1978V28.3259C26.7667 28.9559 26.2559 29.4667 25.6259 29.4667V29.4667C24.9959 29.4667 24.4852 28.9559 24.4852 28.3259V22.8888L17.6407 18.9618V26.8147L22.3839 29.5356C22.9299 29.8488 23.1168 30.5464 22.8005 31.0905V31.0905C22.4868 31.6304 21.7959 31.8155 21.2542 31.5048L17.6407 29.4315V32.8593C17.6407 33.4893 17.13 34 16.5 34V34C15.87 34 15.3593 33.4893 15.3593 32.8593V29.4315L11.7458 31.5048C11.2041 31.8155 10.5132 31.6304 10.1995 31.0905V31.0905C9.88322 30.5464 10.0701 29.8488 10.6161 29.5356L15.3593 26.8147V18.9618L8.51483 22.8877V28.3259C8.51483 28.9559 8.0041 29.4667 7.37409 29.4667V29.4667C6.74408 29.4667 6.23335 28.9559 6.23335 28.3259V24.1967L3.23144 25.9195C2.68975 26.2303 1.99868 26.0453 1.68487 25.5053V25.5053C1.36866 24.9612 1.55542 24.2637 2.1012 23.9503L5.09147 22.2337L1.49022 20.1679C0.94424 19.8547 0.757329 19.1571 1.07359 18.6129V18.6129C1.38734 18.073 2.07821 17.8879 2.61987 18.1985L7.37295 20.9247L14.2174 16.9989L7.37409 13.073L2.62046 15.8009C2.07855 16.1118 1.38722 15.9266 1.07342 15.3863V15.3863C0.757238 14.8419 0.944302 14.1442 1.49041 13.831L5.09261 11.7651L2.10177 10.0495C1.55573 9.73632 1.36879 9.03862 1.68508 8.49436V8.49436C1.99882 7.9545 2.68962 7.76933 3.2313 8.0799L6.23335 9.80107V5.67407C6.23335 5.04406 6.74408 4.53333 7.37409 4.53333V4.53333C8.0041 4.53333 8.51483 5.04406 8.51483 5.67407V11.1101L15.3593 15.0359V7.1842L10.6164 4.4644C10.0703 4.15121 9.88317 3.45347 10.1994 2.90906V2.90906C10.5131 2.36879 11.2044 2.18352 11.7464 2.49444L15.3593 4.56733V1.14074C15.3593 0.510726 15.87 0 16.5 0V0Z" fill="#3C3C3C"/>
</svg>
