<svg width="21" height="21" viewBox="0 0 21 21" fill="none" xmlns="http://www.w3.org/2000/svg">
<path d="M12.0138 3.0718L13.5538 6.1518C13.7638 6.58055 14.3238 6.9918 14.7963 7.07055L17.5875 7.5343C19.3725 7.8318 19.7925 9.1268 18.5063 10.4043L16.3363 12.5743C15.9688 12.9418 15.7675 13.6505 15.8813 14.158L16.5025 16.8443C16.9925 18.9705 15.8638 19.793 13.9825 18.6818L11.3663 17.133C10.8938 16.853 10.115 16.853 9.63379 17.133L7.01754 18.6818C5.14504 19.793 4.00754 18.9618 4.49754 16.8443L5.11879 14.158C5.23254 13.6505 5.03129 12.9418 4.66379 12.5743L2.49379 10.4043C1.21629 9.1268 1.62754 7.8318 3.41254 7.5343L6.20379 7.07055C6.66754 6.9918 7.22754 6.58055 7.43754 6.1518L8.97754 3.0718C9.81754 1.40055 11.1825 1.40055 12.0138 3.0718Z" stroke="#6F6F6F" stroke-width="0.8" stroke-linecap="round" stroke-linejoin="round"/>
</svg>
