<svg width="21" height="21" viewBox="0 0 21 21" fill="none" xmlns="http://www.w3.org/2000/svg">
<path d="M13.6324 10.4997C13.6324 12.2322 12.2324 13.6322 10.4999 13.6322C8.76743 13.6322 7.36743 12.2322 7.36743 10.4997C7.36743 8.76719 8.76743 7.36719 10.4999 7.36719C12.2324 7.36719 13.6324 8.76719 13.6324 10.4997Z" stroke="#6F6F6F" stroke-linecap="round" stroke-linejoin="round"/>
<path d="M10.5001 17.7371C13.5889 17.7371 16.4676 15.9171 18.4714 12.7671C19.2589 11.5334 19.2589 9.45961 18.4714 8.22586C16.4676 5.07586 13.5889 3.25586 10.5001 3.25586C7.41136 3.25586 4.53261 5.07586 2.52886 8.22586C1.74136 9.45961 1.74136 11.5334 2.52886 12.7671C4.53261 15.9171 7.41136 17.7371 10.5001 17.7371Z" stroke="#6F6F6F" stroke-linecap="round" stroke-linejoin="round"/>
</svg>
