<svg width="26" height="27" viewBox="0 0 26 27" fill="none" xmlns="http://www.w3.org/2000/svg">
<path d="M23.3836 20.1851C23.3836 20.5654 23.2991 20.9562 23.1195 21.3365C22.9399 21.7167 22.7075 22.0759 22.4012 22.4139C21.8836 22.9843 21.3132 23.3963 20.6689 23.6603C20.0351 23.9244 19.3485 24.0617 18.6091 24.0617C17.5316 24.0617 16.3802 23.8082 15.1655 23.2906C13.9507 22.773 12.736 22.0759 11.5318 21.1991C10.317 20.3118 9.16564 19.3295 8.06708 18.2415C6.97908 17.1429 5.99671 15.9915 5.11997 14.7873C4.2538 13.5832 3.55663 12.379 3.04961 11.1853C2.54258 9.98113 2.28906 8.82976 2.28906 7.73119C2.28906 7.0129 2.41582 6.3263 2.66933 5.69252C2.92285 5.04817 3.32425 4.45663 3.88409 3.92848C4.56013 3.263 5.29955 2.93555 6.08122 2.93555C6.37698 2.93555 6.67275 2.99893 6.93683 3.12568C7.21147 3.25244 7.45442 3.44258 7.64455 3.71722L10.0952 7.17135C10.2853 7.43543 10.4226 7.67838 10.5177 7.91077C10.6128 8.13259 10.6656 8.35442 10.6656 8.55512C10.6656 8.80863 10.5917 9.06214 10.4438 9.3051C10.3065 9.54805 10.1058 9.80156 9.85224 10.0551L9.04945 10.8896C8.93325 11.0058 8.88044 11.1431 8.88044 11.3121C8.88044 11.3966 8.891 11.4705 8.91213 11.555C8.94382 11.6395 8.9755 11.7029 8.99663 11.7663C9.18677 12.1149 9.51422 12.5691 9.979 13.1184C10.4543 13.6677 10.9614 14.2275 11.5106 14.7873C12.0811 15.3472 12.6303 15.8648 13.1902 16.3401C13.7395 16.8049 14.1937 17.1218 14.5528 17.3119C14.6056 17.3331 14.669 17.3647 14.743 17.3964C14.8275 17.4281 14.912 17.4387 15.007 17.4387C15.1866 17.4387 15.3239 17.3753 15.4401 17.2591L16.2429 16.4669C16.507 16.2028 16.7605 16.0021 17.0035 15.8753C17.2464 15.7275 17.4894 15.6535 17.7534 15.6535C17.9541 15.6535 18.1654 15.6958 18.3978 15.7908C18.6302 15.8859 18.8731 16.0232 19.1372 16.2028L22.6336 18.6851C22.9082 18.8753 23.0984 19.0971 23.2146 19.3612C23.3202 19.6252 23.3836 19.8893 23.3836 20.1851Z" fill="white" stroke="white" stroke-width="1.58446" stroke-miterlimit="10"/>
</svg>
