<svg width="12" height="13" viewBox="0 0 12 13" fill="none" xmlns="http://www.w3.org/2000/svg">
<path fill-rule="evenodd" clip-rule="evenodd" d="M6.00047 1.17773C6.09993 1.17773 6.19531 1.21724 6.26564 1.28757C6.33596 1.3579 6.37547 1.45328 6.37547 1.55273V10.3975L8.73497 8.03723C8.80539 7.96682 8.90089 7.92726 9.00047 7.92726C9.10006 7.92726 9.19556 7.96682 9.26597 8.03723C9.33639 8.10765 9.37595 8.20315 9.37595 8.30273C9.37595 8.40232 9.33639 8.49782 9.26597 8.56823L6.26597 11.5682C6.23114 11.6032 6.18976 11.6309 6.1442 11.6498C6.09864 11.6687 6.0498 11.6784 6.00047 11.6784C5.95115 11.6784 5.90231 11.6687 5.85675 11.6498C5.81119 11.6309 5.76981 11.6032 5.73497 11.5682L2.73497 8.56823C2.66456 8.49782 2.625 8.40232 2.625 8.30273C2.625 8.20315 2.66456 8.10765 2.73497 8.03723C2.80539 7.96682 2.90089 7.92726 3.00047 7.92726C3.10006 7.92726 3.19556 7.96682 3.26597 8.03723L5.62547 10.3975V1.55273C5.62547 1.45328 5.66498 1.3579 5.73531 1.28757C5.80564 1.21724 5.90102 1.17773 6.00047 1.17773Z" fill="black"/>
</svg>
