<svg width="22" height="22" viewBox="0 0 22 22" fill="none" xmlns="http://www.w3.org/2000/svg">
<g clip-path="url(#clip0_1385_41370)">
<path d="M21.4184 14.2557C21.4184 16.217 20.3295 17.8071 18.1899 17.8071H3.98439C1.84484 17.8071 0.755859 16.217 0.755859 14.2557V7.15294C0.755859 5.19161 1.84484 3.60156 3.98439 3.60156H18.1899C20.3295 3.60156 21.4184 5.19161 21.4184 7.15294V14.2557Z" fill="#137A08"/>
<path fill-rule="evenodd" clip-rule="evenodd" d="M10.6344 10.4822C10.6115 10.1616 10.6628 10.0813 11.0299 9.8685C10.9256 9.77358 10.7997 9.75162 10.6706 9.74161C10.5159 9.72999 10.3616 9.72483 10.2086 9.7103C10.1298 9.70352 10.1149 9.67252 10.1298 9.59472C10.1711 9.38163 10.2815 9.23377 10.4985 9.16629C10.7096 9.10011 10.9159 9.0181 11.1303 8.94029C11.123 8.922 11.1151 8.9036 11.1067 8.88509C11.0826 8.83943 11.0693 8.78882 11.0679 8.73719C11.0665 8.68557 11.077 8.63431 11.0987 8.58742C11.1158 8.55061 11.1348 8.51381 11.1561 8.47991C11.2885 8.26844 11.417 8.22937 11.642 8.33527C11.7131 8.36884 11.7821 8.4092 11.8438 8.45731C12.0227 8.59646 12.0388 8.79275 11.879 8.95514C11.8122 9.02133 11.7218 9.06685 11.6414 9.12141C11.5952 9.15176 11.521 9.14337 11.5048 9.21827C11.5038 9.22408 11.4767 9.22473 11.4619 9.22731C11.4215 9.22957 11.3773 9.22118 11.3411 9.23538C11.1684 9.29931 10.9983 9.3684 10.8281 9.43813C10.8016 9.44782 10.7787 9.46558 10.7532 9.47946L10.7577 9.50077C10.9101 9.50077 11.0644 9.50303 11.2165 9.4998C11.5578 9.49108 11.8997 9.4801 12.2409 9.46945C12.352 9.46687 12.3652 9.48753 12.332 9.59375C12.3241 9.6165 12.3168 9.63943 12.31 9.66252C12.2771 9.78229 12.1957 9.83589 12.0753 9.85429C11.7098 9.90659 11.3605 10.0228 11.0173 10.1591C10.9385 10.1913 10.8572 10.2349 10.8533 10.3308C10.8504 10.4248 10.9195 10.4839 10.995 10.5252C11.0715 10.5662 11.1529 10.5959 11.2326 10.6272C11.3237 10.6614 11.3402 10.6882 11.3166 10.7799C11.2649 10.9717 11.2598 10.983 11.0538 10.961C10.6418 10.9165 10.2825 10.767 10.0397 10.4083C9.99063 10.3353 9.9535 10.2533 9.90475 10.1652C9.88506 10.1904 9.86569 10.2133 9.84632 10.2375C9.69135 10.4503 9.52346 10.6517 9.30973 10.8112C9.15573 10.9271 8.99269 11.0179 8.7893 11.0133C8.54942 11.0075 8.39961 10.8855 8.35344 10.6479C8.34742 10.6184 8.34128 10.5897 8.33504 10.562C8.11098 10.645 7.8908 10.7273 7.67093 10.8054C7.56332 10.8426 7.45462 10.8761 7.34485 10.9058C7.30643 10.9165 7.26446 10.9126 7.22411 10.9149C7.21915 10.9054 7.21496 10.8955 7.21151 10.8852C7.24186 10.8639 7.27092 10.8396 7.30288 10.8212C7.62896 10.6317 7.95182 10.4419 8.2779 10.2537C8.32858 10.2243 8.35183 10.183 8.36894 10.1287C8.41931 9.98311 8.47548 9.84008 8.53134 9.69609C8.54167 9.66897 8.56072 9.64702 8.58654 9.60505C8.64918 9.74258 8.58945 9.87108 8.62044 9.99925C8.63949 9.98924 8.65822 9.97988 8.67242 9.96761C8.7922 9.86882 8.91359 9.77325 9.02756 9.66897C9.1864 9.52272 9.20997 9.40036 9.12474 9.20277C9.07631 9.09365 9.02207 8.98743 8.96751 8.88153C8.95687 8.86007 8.93969 8.84255 8.91844 8.83149C8.85354 8.79372 8.83385 8.73948 8.85806 8.67297C8.88626 8.59979 8.91865 8.52887 8.95524 8.46021C8.98333 8.40823 9.03208 8.40081 9.06953 8.44439C9.15304 8.54017 9.23139 8.63939 9.30457 8.74206C9.34783 8.80276 9.32394 8.84989 9.25872 8.86991C9.29165 9.00099 9.32878 9.12884 9.35493 9.2583C9.40498 9.51659 9.32555 9.73839 9.15283 9.93177C8.99172 10.1129 8.81383 10.274 8.60366 10.3986C8.57783 10.4135 8.55716 10.4571 8.55846 10.4884C8.5591 10.5591 8.5888 10.6311 8.66241 10.6443C8.74829 10.6598 8.84257 10.6676 8.92489 10.6479C9.12183 10.603 9.27939 10.4797 9.4095 10.3328C9.53961 10.183 9.64905 10.0138 9.76689 9.85364C9.80208 9.80522 9.80338 9.75711 9.78594 9.69964C9.67714 9.36323 9.57286 9.02391 9.46535 8.68782C9.41337 8.52543 9.46696 8.30912 9.59029 8.21484C9.61128 8.24971 9.63162 8.282 9.64938 8.31719C9.87085 8.77144 10.0032 9.2512 10.0688 9.75162C10.092 9.93759 10.1272 10.1229 10.2599 10.2704C10.3593 10.3818 10.4888 10.4448 10.6344 10.4822ZM11.6478 8.8005C11.6485 8.79253 11.6487 8.78479 11.6485 8.77725C11.5549 8.73528 11.4806 8.65037 11.3482 8.65037C11.3579 8.72624 11.3663 8.79243 11.3747 8.8712L11.6478 8.8005ZM14.4499 14.7562C14.2794 14.7562 14.1283 14.7536 13.9762 14.7578C13.6644 14.7646 13.3538 14.7794 13.0403 14.7817C11.2846 14.7949 9.52734 14.8065 7.7707 14.813C7.44946 14.8136 7.1266 14.7917 6.81376 14.7026C6.66686 14.6606 6.52933 14.597 6.42053 14.483C6.3947 14.4559 6.37274 14.4217 6.33594 14.3739H6.47638C8.40704 14.3862 10.3377 14.402 12.2677 14.4107C12.9593 14.4149 13.6495 14.4065 14.3411 14.402C14.3688 14.402 14.4182 14.393 14.4195 14.3836C14.4247 14.3484 14.426 14.2996 14.405 14.2777C14.3098 14.1721 14.3637 14.0859 14.4379 13.9975C14.468 13.9619 14.4996 13.9565 14.5328 13.9955C14.6239 14.105 14.651 14.1618 14.5697 14.2661C14.5467 14.2958 14.5483 14.3448 14.5361 14.393C14.5719 14.3959 14.5932 14.4001 14.6132 14.3994C14.9425 14.3936 15.269 14.3865 15.5976 14.3797C15.66 14.3797 15.7223 14.3836 15.7845 14.3913C15.9331 14.4085 16.0118 14.4808 16.0441 14.6286C16.0719 14.7523 16.0719 14.8772 16.0241 14.997C15.9602 15.1591 15.8126 15.192 15.6812 15.0768C15.6584 15.0599 15.6311 15.0499 15.6028 15.048C15.5188 15.0454 15.4346 15.048 15.3506 15.0487C15.2883 15.0496 15.2263 15.04 15.1808 15.1103C15.1511 15.1559 15.0969 15.1368 15.0501 15.1071C15.0163 15.0844 14.9777 15.0701 14.9374 15.0651C14.8699 15.0593 14.8015 15.0684 14.7343 15.0638C14.6552 15.06 14.5913 15.0732 14.5558 15.1555C14.5358 15.1998 14.4996 15.1981 14.4638 15.1642C14.3666 15.0768 14.3585 15.0057 14.4234 14.8898C14.4424 14.8553 14.4399 14.8098 14.4499 14.7562ZM15.6037 14.9337L15.6234 14.7255C15.6073 14.7239 15.5941 14.7187 15.5818 14.7187C15.2654 14.7268 14.9493 14.7336 14.6323 14.7429C14.5584 14.7452 14.5303 14.7965 14.5667 14.8634C14.5987 14.9202 14.6368 14.9667 14.7198 14.9518C14.7937 14.9399 14.8709 14.9492 14.9458 14.9421C14.9805 14.9383 15.013 14.9234 15.0384 14.8995C15.0894 14.8511 15.1375 14.8524 15.1899 14.8914C15.2112 14.9086 15.2334 14.9308 15.2554 14.9318C15.3706 14.937 15.4872 14.9337 15.6037 14.9337Z" fill="white"/>
<path fill-rule="evenodd" clip-rule="evenodd" d="M6.93432 9.27235C6.84715 9.29818 6.76031 9.324 6.67346 9.35274C6.58403 9.3805 6.50073 9.35952 6.42293 9.31948C6.39774 9.30818 6.36965 9.27913 6.3661 9.2562C6.3364 9.0386 6.32413 8.8239 6.48265 8.63923C6.59307 8.50912 6.70413 8.48685 6.82972 8.60211C6.92593 8.68863 7.00471 8.79388 7.09833 8.89881C7.12804 8.8817 7.17485 8.86006 7.21585 8.83068C7.22501 8.82248 7.23239 8.81249 7.23755 8.80133C7.24272 8.79018 7.24555 8.77808 7.24588 8.76579C7.22263 8.49137 7.19648 8.215 7.17001 7.93993C7.14009 7.63064 7.10953 7.32103 7.07832 7.01109C7.07654 6.98977 7.07264 6.96868 7.06669 6.94813C7.02634 6.82448 7.0964 6.66499 7.2207 6.61495C7.23619 6.60817 7.27752 6.62657 7.28623 6.64368C7.31594 6.7047 7.33628 6.76959 7.35952 6.83319C7.40257 6.95007 7.44508 7.06705 7.48705 7.18414C7.499 7.21407 7.5064 7.24563 7.509 7.27776C7.51804 7.38979 7.47381 7.42498 7.36662 7.39593C7.39504 7.81822 7.42538 8.23954 7.4567 8.67701C7.50513 8.63762 7.53903 8.60404 7.57745 8.57757C7.60295 8.56013 7.63427 8.55206 7.663 8.53947C7.67559 8.57111 7.69529 8.60049 7.69819 8.63181C7.70594 8.68637 7.69174 8.74448 7.7082 8.79388C7.72628 8.84554 7.75889 8.91366 7.80183 8.93012C7.8438 8.94594 7.92871 8.92141 7.95712 8.88492C8.02718 8.79872 8.07722 8.69606 8.13243 8.59791C8.14631 8.57305 8.15503 8.54593 8.16601 8.5201H8.19119C8.20184 8.57402 8.20862 8.63116 8.22541 8.68346C8.24543 8.74416 8.26512 8.81035 8.30193 8.85845C8.36521 8.94078 8.45335 8.92108 8.4753 8.82326C8.48854 8.76192 8.48273 8.69412 8.47304 8.63278C8.46045 8.56369 8.48789 8.49686 8.55537 8.48426C8.57409 8.48136 8.61187 8.50428 8.61736 8.52236C8.66288 8.69218 8.65933 8.86297 8.58862 9.02407C8.5318 9.15063 8.30677 9.1587 8.19151 9.04603C8.17053 9.02569 8.15148 9.00051 8.12436 8.97113C8.03654 9.06152 7.94582 9.14321 7.81281 9.15547C7.68044 9.16742 7.57325 9.13255 7.50029 9.00018C7.49125 9.02795 7.48221 9.04183 7.48221 9.05604C7.48769 9.19745 7.49512 9.33821 7.50029 9.47897C7.51029 9.73209 7.49609 9.98198 7.39342 10.2199C7.31019 10.4139 7.16059 10.5718 6.97145 10.6655C6.66184 10.823 6.33511 10.9254 5.98385 10.927C5.9225 10.927 5.8589 10.9163 5.79917 10.904C5.56543 10.8556 5.44823 10.6955 5.39044 10.4779C5.29972 10.1379 5.32103 9.80344 5.435 9.47187C5.44468 9.44378 5.46308 9.41763 5.47697 9.39116C5.48489 9.39394 5.49314 9.39567 5.5015 9.39632C5.5015 9.48575 5.51151 9.57647 5.50054 9.663C5.4718 9.87479 5.48052 10.0795 5.5551 10.2793C5.62322 10.4646 5.76205 10.5686 5.95931 10.5802C6.34318 10.6022 6.6712 10.4559 6.9763 10.2374C7.18744 10.0859 7.27138 9.87802 7.27138 9.62781C7.27041 9.46509 7.27138 9.30173 7.27138 9.12803C7.21036 9.15418 7.13966 9.15612 7.14967 9.24297C7.20132 9.72014 6.93142 9.99586 6.54884 10.1973C6.44553 10.2525 6.33156 10.2987 6.21662 10.3216C5.9225 10.3807 5.65841 10.1818 5.61321 9.88448C5.58125 9.67172 5.61676 9.46444 5.66906 9.25879C5.6781 9.22586 5.70361 9.19745 5.72104 9.16581C5.72785 9.16899 5.735 9.17138 5.74235 9.17291C5.74235 9.21423 5.74623 9.25524 5.74235 9.29559C5.72686 9.45928 5.72589 9.62167 5.79465 9.77503C5.88602 9.98198 6.03421 10.0478 6.24859 9.97713C6.51494 9.88932 6.72027 9.71466 6.893 9.50157C6.93755 9.44572 6.94078 9.35984 6.96306 9.2872C6.95499 9.28171 6.94401 9.27687 6.93432 9.27235ZM6.83747 9.00567C6.79873 8.95853 6.77709 8.91689 6.74384 8.89461C6.70671 8.86943 6.65732 8.86103 6.6147 8.84554C6.60405 8.89009 6.58112 8.93658 6.58823 8.97887C6.59113 9.00503 6.63827 9.04151 6.667 9.04377C6.71834 9.04538 6.76967 9.02246 6.83747 9.00567ZM16.0972 8.31057C16.1059 8.49427 16.1166 8.67701 16.125 8.86103C16.1398 9.16742 16.1627 9.47284 16.1618 9.77858C16.1599 9.9029 16.1293 10.0251 16.0723 10.1357C15.9332 10.4059 15.6885 10.4411 15.4266 10.2784C15.3459 10.229 15.2843 10.147 15.2223 10.0717C15.1864 10.0304 15.16 10.0194 15.128 10.063C15.0811 10.1255 15.0379 10.1907 14.9989 10.2583C14.8988 10.4385 14.8039 10.6215 14.7047 10.802C14.6846 10.8403 14.6569 10.8741 14.6234 10.9015C14.5937 10.9234 14.5478 10.9418 14.5136 10.9373C14.3415 10.9095 14.0946 10.6299 14.0971 10.454C14.0981 10.3039 14.1175 10.1524 14.1401 10.003C14.154 9.90578 14.1853 9.81216 14.2092 9.71659L14.2437 9.71885C14.2502 9.76599 14.2631 9.81313 14.2631 9.86058C14.2608 10.0666 14.2763 10.2658 14.3603 10.4569C14.3709 10.4788 14.3803 10.5021 14.3935 10.5224C14.4565 10.6219 14.5372 10.6254 14.604 10.5276C14.6395 10.474 14.666 10.4143 14.6983 10.3575C14.8168 10.1479 14.9311 9.93452 15.0557 9.72951C15.1358 9.59617 15.2142 9.59617 15.3195 9.71466C15.3879 9.79343 15.4486 9.88286 15.5245 9.95357C15.6388 10.0595 15.7999 10.0204 15.8535 9.87415C15.8828 9.78859 15.9041 9.69399 15.9006 9.60424C15.8854 9.16968 15.8625 8.73286 15.8402 8.2983C15.8344 8.20338 15.8202 8.10782 15.8212 8.01354C15.8239 7.92964 15.7944 7.84788 15.7388 7.78496C15.5787 7.58706 15.4247 7.38366 15.2646 7.18575C15.1829 7.08631 15.1322 6.98526 15.1509 6.85289C15.1609 6.79155 15.1493 6.72698 15.1542 6.66531C15.1567 6.63851 15.168 6.59913 15.1871 6.58976C15.2065 6.58105 15.2475 6.59493 15.2652 6.61236C15.3901 6.72902 15.5123 6.84805 15.632 6.96944C15.6836 7.02109 15.6739 7.05273 15.5978 7.10181C15.6449 7.17187 15.693 7.24096 15.7392 7.3094L15.764 7.30488C15.7492 7.19221 15.7524 7.07307 15.7156 6.97041C15.6578 6.81253 15.7179 6.69566 15.8044 6.58072C15.8496 6.52035 15.8854 6.56006 15.9045 6.60849C15.9529 6.73214 15.9984 6.85515 16.0426 6.98106C16.0701 7.05758 16.092 7.137 16.1201 7.22837C16.0746 7.22546 16.0507 7.22256 16.0288 7.22062C16.0281 7.22643 16.0246 7.2303 16.0246 7.23547C16.0346 7.39786 16.0436 7.56155 16.0552 7.72298C16.0569 7.74138 16.0585 7.76172 16.0691 7.77657C16.1802 7.93445 16.2951 8.09232 16.4217 8.24406C16.4039 8.12654 16.382 8.00741 16.37 7.88892C16.3358 7.56833 16.3151 7.24612 16.2703 6.92747C16.2515 6.79122 16.2803 6.68339 16.359 6.58072C16.4207 6.50098 16.472 6.50259 16.5021 6.59751C16.5637 6.79284 16.6176 6.99204 16.6683 7.19188C16.6871 7.2642 16.6551 7.29197 16.5728 7.2952C16.5906 7.55262 16.6096 7.80907 16.6296 8.06455C16.6428 8.22792 16.6551 8.39064 16.6738 8.55142C16.68 8.59662 16.6948 8.64634 16.7203 8.6854C16.8733 8.9185 17.0328 9.14869 17.1846 9.38179C17.2843 9.53547 17.337 9.70432 17.3237 9.88964C17.3221 9.91515 17.3169 9.93968 17.3121 9.99005C17.1116 9.69593 16.9256 9.42441 16.7403 9.1516C16.7184 9.44314 16.7901 9.73467 16.649 10.0033C16.6402 10.0033 16.6299 10.0033 16.6212 10.0039C16.616 9.9639 16.6044 9.92451 16.6063 9.88319C16.6193 9.56356 16.5947 9.24458 16.5366 8.93045C16.5321 8.90914 16.5292 8.88525 16.5163 8.8691C16.3849 8.68056 16.2509 8.49427 16.1175 8.30669C16.1107 8.30777 16.1037 8.30906 16.0972 8.31057Z" fill="white"/>
<path fill-rule="evenodd" clip-rule="evenodd" d="M6.15298 6.82696C6.29632 6.9364 6.36186 7.06587 6.34572 7.22407C6.32441 7.42133 6.37058 7.60632 6.42191 7.79164C6.45969 7.9253 6.5404 7.98051 6.67051 7.98438C6.77737 7.986 6.81999 7.94338 6.79739 7.84007C6.75768 7.6667 6.70925 7.49494 6.66438 7.32318C6.65562 7.28862 6.64249 7.25531 6.62531 7.22407C6.55396 7.09396 6.59109 6.98903 6.69214 6.89314C6.73508 6.85182 6.77253 6.84665 6.80837 6.89024C6.86358 6.95707 6.92169 7.02325 6.96398 7.09848C7.01725 7.18887 7.00079 7.22826 6.90619 7.28186C6.93686 7.41455 6.97948 7.54724 6.99401 7.68284C7.00886 7.80617 7.01144 7.93789 6.98691 8.05929C6.9501 8.23685 6.70441 8.36955 6.53233 8.32822C6.43128 8.30272 6.37058 8.23524 6.33184 8.14323C6.31537 8.10416 6.30214 8.06284 6.28244 8.00924C6.25952 8.04056 6.24144 8.05929 6.22723 8.08092C6.1985 8.12289 6.18042 8.17713 6.14265 8.20812C6.04547 8.28657 6.06032 8.38472 6.06871 8.48771C6.08905 8.76924 6.10972 9.05012 6.12134 9.33165C6.12618 9.44562 6.09745 9.55506 5.99801 9.64191C5.97928 9.44174 5.9612 9.24286 5.94022 9.04302C5.91923 8.84124 5.89534 8.63913 5.87145 8.43283C5.8595 8.43024 5.84853 8.42508 5.83529 8.42411C5.61995 8.40248 5.49178 8.29206 5.43463 8.08156C5.38879 7.91336 5.39557 7.74321 5.41268 7.57404C5.41946 7.50301 5.42204 7.43263 5.42753 7.36095C5.41429 7.35902 5.40331 7.35579 5.39072 7.35417C5.35908 7.46846 5.32583 7.58275 5.29806 7.69834C5.25674 7.86138 5.22413 8.02506 5.18281 8.18714C5.16997 8.22542 5.1493 8.2606 5.12211 8.29045C5.03978 8.39667 4.93808 8.39473 4.87706 8.27624C4.82278 8.1705 4.78033 8.05909 4.75051 7.94403C4.6791 7.69817 4.67453 7.43773 4.73727 7.18952C4.74437 7.15853 4.76213 7.12882 4.77407 7.09848C4.7815 7.09912 4.78989 7.10106 4.79861 7.10106C4.80184 7.13593 4.80604 7.17273 4.80959 7.20792C4.83057 7.40583 4.84639 7.60568 4.87739 7.80391C4.88739 7.873 4.92517 7.94144 4.96423 8.00117C5.00459 8.06542 5.06141 8.06058 5.08434 7.99052C5.11856 7.87946 5.14568 7.76549 5.15988 7.65152C5.18313 7.44038 5.2393 7.24247 5.35521 7.06393C5.38814 7.0155 5.4285 6.96772 5.47596 6.93608C5.55764 6.88249 5.64287 6.92607 5.63964 7.02228C5.63572 7.12188 5.62133 7.22079 5.5967 7.31737C5.54279 7.51915 5.54795 7.71416 5.64287 7.90206C5.69065 7.99084 5.74005 8.02248 5.84207 8.03055C5.83594 7.9437 5.83464 7.85783 5.82367 7.77292C5.79493 7.52432 5.76329 7.27443 5.73004 7.02583C5.71954 6.95495 5.70433 6.88484 5.68452 6.81598C5.66902 6.74979 5.71906 6.60742 5.77944 6.57933C5.79719 6.57061 5.84239 6.58385 5.85143 6.60031C5.9131 6.71945 5.97444 6.84019 6.02416 6.96514C6.03576 6.99314 6.03765 7.02423 6.02951 7.05343C6.02138 7.08263 6.00369 7.10827 5.97928 7.12624C5.96508 7.13657 5.95668 7.16208 5.95765 7.18145C5.98154 7.44522 6.00802 7.70996 6.0332 7.97276C6.03384 7.97793 6.03901 7.98116 6.04288 7.98503C6.15072 7.91594 6.21303 7.77259 6.19043 7.65346C6.15782 7.49139 6.1236 7.33061 6.09551 7.16724C6.07517 7.05489 6.10455 6.94899 6.15298 6.82696ZM9.00538 6.88927C9.0028 6.91574 9.00151 6.94092 8.99666 6.96546C8.96083 7.15917 8.9534 7.3545 8.9944 7.54789C9.01184 7.62892 9.05284 7.70964 9.09643 7.78228C9.11644 7.81521 9.16875 7.84879 9.20458 7.84685C9.23364 7.84523 9.27238 7.79681 9.28723 7.76065C9.37021 7.57662 9.4422 7.38646 9.53034 7.20308C9.5849 7.08879 9.65399 6.97967 9.72663 6.87635C9.75311 6.83987 9.82058 6.79177 9.85029 6.80339C9.91518 6.82631 9.94359 6.8954 9.93423 6.97159C9.92293 7.05715 9.90259 7.14271 9.89904 7.22826C9.89226 7.40422 9.88322 7.58082 9.89226 7.75645C9.90098 7.94532 10.0437 8.02506 10.2203 7.94919C10.4879 7.8349 10.5557 7.66767 10.5376 7.39841C10.5244 7.19307 10.4734 6.98774 10.4356 6.78369C10.413 6.65068 10.4979 6.56415 10.5573 6.44922C10.6545 6.56254 10.6816 6.68458 10.6981 6.80565C10.7272 7.00646 10.7385 7.20954 10.7691 7.411C10.7911 7.55886 10.8414 7.69995 10.9409 7.81779C10.9845 7.86977 11.0352 7.91174 11.1088 7.88785C11.1846 7.86493 11.2082 7.80068 11.2147 7.72933C11.2311 7.54595 11.1927 7.36838 11.1385 7.19501C11.1045 7.08665 11.0677 6.97921 11.0281 6.8728C11.0061 6.81501 11.0116 6.77013 11.0536 6.72494C11.0849 6.69136 11.1036 6.64745 11.1275 6.60839C11.1695 6.53477 11.1959 6.52832 11.2608 6.57836C11.3877 6.67812 11.4636 6.81114 11.5049 6.9632C11.5117 6.98838 11.4952 7.02228 11.4891 7.05069C11.4613 7.04521 11.4326 7.04295 11.4077 7.03197C11.3832 7.02196 11.3625 7.00323 11.3257 6.97837C11.3567 7.09848 11.3848 7.19985 11.4077 7.30446C11.4426 7.47137 11.4671 7.64087 11.4177 7.81004C11.4103 7.83878 11.4039 7.86783 11.3938 7.89657C11.2838 8.19166 11.0458 8.25171 10.8085 8.04443C10.7578 7.99988 10.7055 7.95791 10.6619 7.92175C10.5786 7.99988 10.4831 8.09383 10.382 8.18003C10.3452 8.21329 10.2945 8.23266 10.2464 8.25171C10.0295 8.33823 9.8377 8.25364 9.75408 8.03669C9.68499 7.86202 9.69726 7.67961 9.70888 7.49784C9.71114 7.45652 9.70888 7.4139 9.70888 7.37193L9.68176 7.36515C9.66271 7.40325 9.64043 7.4407 9.6259 7.4817C9.56489 7.64377 9.51065 7.80843 9.44801 7.97018C9.35858 8.20328 9.22202 8.22007 9.06479 8.02635C8.79101 7.68478 8.80328 7.31446 8.95276 6.93092C8.95954 6.91477 8.97277 6.8996 8.98246 6.88475C8.98968 6.88808 8.99745 6.89005 9.00538 6.89056M12.3385 7.48332C12.3233 7.33028 12.3327 7.16757 12.2836 7.02745C12.2639 6.97489 12.2551 6.91887 12.2578 6.86281C12.2605 6.80675 12.2745 6.75182 12.2991 6.70137C12.3153 6.6694 12.3511 6.62743 12.3798 6.6255C12.4086 6.62356 12.4538 6.66036 12.467 6.69104C12.5487 6.88604 12.6275 7.08072 12.6969 7.28056C12.7314 7.38162 12.6991 7.41681 12.5968 7.40841C12.6049 7.59018 12.6116 7.77098 12.6242 7.95113C12.6249 7.97567 12.6468 7.99956 12.6601 8.02377C12.8938 8.41991 13.1337 8.81315 13.3591 9.21413C13.4711 9.41139 13.5579 9.62383 13.5902 9.85306C13.597 9.8989 13.5957 9.94733 13.5973 9.99479C13.5888 9.99959 13.5801 10.004 13.5712 10.008C13.5511 9.98155 13.5266 9.95734 13.5134 9.92763C13.2987 9.41946 13.0039 8.95585 12.7104 8.48965C12.6956 8.46769 12.6804 8.44703 12.6517 8.40668C12.6665 8.58683 12.6804 8.74535 12.693 8.90225C12.7217 9.24997 12.7899 9.59607 12.7482 9.94604C12.7276 10.1117 12.6765 10.2728 12.6336 10.4339C12.6249 10.4726 12.5945 10.5062 12.5729 10.5411C12.5613 10.5381 12.5484 10.5365 12.5377 10.534C12.5377 10.4923 12.5296 10.4487 12.5393 10.4084C12.6197 10.0962 12.591 9.77945 12.5548 9.46466C12.508 9.04754 12.4505 8.63203 12.4041 8.21522C12.3856 8.0538 12.3495 7.9069 12.2433 7.77614C12.0873 7.5805 11.9508 7.37258 11.8003 7.17273C11.7558 7.1143 11.6928 7.06974 11.6447 7.01389C11.6169 6.98354 11.5888 6.94318 11.584 6.90573C11.574 6.80587 11.5707 6.70546 11.574 6.60516C11.574 6.57707 11.5901 6.53639 11.6105 6.52477C11.6318 6.51508 11.676 6.52541 11.6967 6.54381C11.856 6.68716 12.0121 6.83352 12.1651 6.98289C12.1916 7.00808 12.1952 7.05747 12.2094 7.09718C12.1671 7.1059 12.1261 7.11623 12.0776 7.12721C12.1564 7.24247 12.2388 7.36612 12.3237 7.48945C12.328 7.48665 12.3329 7.48429 12.3385 7.48235M17.5074 7.19275C17.5239 7.39582 17.5406 7.606 17.5584 7.81489C17.5936 8.22878 17.631 8.64074 17.6669 9.054C17.696 9.3427 17.6845 9.63407 17.6327 9.91956C17.5578 10.3144 17.3876 10.6457 16.9915 10.8061C16.8756 10.8533 16.749 10.8778 16.6257 10.9094C16.5918 10.9169 16.554 10.9101 16.5178 10.9101C16.5146 10.9004 16.5098 10.8923 16.5069 10.883C16.5427 10.8494 16.5753 10.8129 16.6134 10.7835C16.7429 10.6841 16.8772 10.5937 17.0037 10.4917C17.3069 10.2444 17.4502 9.92021 17.4296 9.53472C17.4078 9.13709 17.3771 8.73999 17.3376 8.34372C17.2988 7.94015 17.2498 7.53723 17.2026 7.13431C17.1903 7.02939 17.1729 6.92543 17.1574 6.82115C17.1448 6.7456 17.2397 6.55382 17.3088 6.53219C17.3253 6.52767 17.3657 6.54866 17.3744 6.56835C17.4583 6.74431 17.5377 6.92123 17.6162 7.09977C17.6259 7.12721 17.6194 7.16046 17.621 7.19275H17.5074Z" fill="white"/>
<path fill-rule="evenodd" clip-rule="evenodd" d="M12.671 10.9784C12.7146 10.9567 12.7562 10.927 12.8011 10.9148C13.1017 10.8328 13.3128 10.6307 13.5165 10.4124C13.7025 10.2135 13.7542 9.97817 13.7335 9.7144C13.7093 9.38832 13.6993 9.05998 13.6722 8.7339C13.6386 8.3284 13.5934 7.9258 13.5504 7.52191C13.5354 7.37949 13.5166 7.23749 13.4939 7.09607C13.4883 7.05321 13.4783 7.01103 13.4642 6.97015C13.4404 6.89073 13.451 6.82229 13.5114 6.76159C13.5688 6.70832 13.6218 6.6515 13.6857 6.58564C13.7077 6.62147 13.7332 6.64795 13.7429 6.67765C13.7936 6.84779 13.8439 7.01987 13.8894 7.19228C13.9137 7.28171 13.8917 7.29946 13.7858 7.27912C13.7858 7.36662 13.7797 7.4525 13.7865 7.53708C13.8349 8.23057 13.9411 8.92051 13.9327 9.61852C13.9292 9.87938 13.9259 10.1409 13.8058 10.3808C13.6973 10.5968 13.534 10.7711 13.3406 10.9157C13.2885 10.9539 13.2283 10.9795 13.1646 10.9906C13.0336 11.011 12.9012 11.0187 12.7691 11.0281C12.7388 11.0297 12.7075 11.0158 12.6768 11.01C12.6754 10.9994 12.6735 10.9888 12.671 10.9784ZM14.3918 7.34725C14.407 7.50964 14.4183 7.65751 14.4357 7.80634C14.4809 8.20969 14.528 8.61261 14.5771 9.0151C14.6007 9.21043 14.6359 9.40543 14.663 9.60076C14.6966 9.84871 14.6462 10.0808 14.5313 10.2988C14.5109 10.3375 14.4728 10.3656 14.4428 10.3982C14.4334 10.3966 14.4244 10.3934 14.4157 10.3921C14.4076 10.3572 14.3892 10.3201 14.3966 10.2907C14.4664 10.0037 14.4199 9.71989 14.3818 9.43514C14.3272 9.04448 14.2824 8.65157 14.2271 8.26124C14.169 7.85671 14.1103 7.45217 14.0428 7.04925C14.0141 6.87362 14.0447 6.72317 14.1545 6.58531C14.2155 6.5088 14.2678 6.513 14.3053 6.60113C14.3414 6.68669 14.3644 6.77418 14.3999 6.85974C14.4493 6.98016 14.5077 7.09574 14.5568 7.21617C14.5752 7.26072 14.5768 7.31173 14.5855 7.35822C14.5397 7.36048 14.4929 7.36339 14.4464 7.36339C14.4334 7.36307 14.4215 7.35661 14.3918 7.34725ZM7.72586 7.74629C7.76008 7.71756 7.7956 7.68592 7.83079 7.65751C7.98124 7.53418 8.13395 7.41343 8.28213 7.28623C8.3396 7.23586 8.38383 7.16935 8.43452 7.11286C8.31345 6.93238 8.32572 6.73931 8.46164 6.62341C8.52008 6.57369 8.58465 6.5456 8.66278 6.58112C8.73736 6.6176 8.75899 6.68378 8.75059 6.75836C8.74349 6.82745 8.72186 6.8959 8.70959 6.96273C8.70087 7.01116 8.70346 7.06184 8.69054 7.10834C8.6782 7.14026 8.65877 7.16896 8.63372 7.19228C8.60466 7.22101 8.56043 7.2378 8.5359 7.26879C8.34735 7.50803 8.09779 7.65848 7.81723 7.76437C7.7943 7.77277 7.76718 7.7718 7.74136 7.77503C7.73662 7.76577 7.73146 7.75619 7.72586 7.74629ZM8.58303 6.78096C8.56915 6.7787 8.55527 6.77418 8.54203 6.77225C8.53331 6.81744 8.52298 6.86329 8.51491 6.90817L8.54849 6.9143C8.56108 6.8691 8.57077 6.82552 8.58303 6.78096ZM5.0126 9.72764C5.04069 9.84193 5.04005 9.93782 5.01616 10.0408C4.98742 10.1667 4.97419 10.2959 4.95675 10.4234C4.95417 10.4434 4.95675 10.4686 4.96741 10.4857C4.98871 10.5202 5.01034 10.5654 5.04231 10.5793C5.06136 10.5871 5.10397 10.5419 5.13174 10.518C5.1482 10.5035 5.15627 10.477 5.17468 10.4692C5.18921 10.4637 5.22375 10.4705 5.22827 10.4825C5.27186 10.578 5.19114 10.7837 5.09461 10.8295C4.99162 10.8786 4.8812 10.8363 4.85634 10.714C4.82987 10.5913 4.8105 10.4573 4.82987 10.3356C4.86086 10.1454 4.92479 9.96074 4.97645 9.77348C4.98064 9.7596 4.99549 9.74959 5.0126 9.72764ZM15.2012 8.38522L14.9933 8.01975C14.877 8.07722 14.8499 8.06107 14.8557 7.94356C14.8577 7.91385 14.8477 7.88189 14.8548 7.85509C14.8638 7.82507 14.8812 7.78407 14.9055 7.77438C14.9287 7.76695 14.9775 7.78665 14.9923 7.8086C15.0388 7.88092 15.0746 7.9597 15.1147 8.03654C15.1315 8.0685 15.147 8.10369 15.1799 8.13436C15.1799 8.07496 15.1789 8.01781 15.1799 7.95808C15.1821 7.88415 15.1747 7.80602 15.1944 7.73596C15.2076 7.69012 15.2577 7.65137 15.2971 7.61877C15.31 7.60714 15.3578 7.61295 15.3658 7.62555C15.3959 7.67042 15.4233 7.7195 15.4353 7.77051C15.4459 7.81248 15.424 7.85025 15.371 7.82249C15.2942 7.78374 15.2693 7.8241 15.2671 7.88802C15.2622 8.00813 15.2645 8.12629 15.2596 8.24575C15.259 8.28933 15.2441 8.33324 15.2351 8.37876C15.2235 8.38156 15.2122 8.38371 15.2012 8.38522ZM4.80469 9.27532C4.91898 9.09291 5.07104 8.95247 5.25378 8.84722C5.36968 8.78039 5.49559 8.73035 5.62054 8.67708C5.65734 8.66061 5.70771 8.62445 5.73257 8.69742C5.75807 8.77038 5.73644 8.82494 5.67219 8.85077C5.5918 8.88209 5.50592 8.90243 5.42973 8.94182C5.23537 9.04093 5.04521 9.14747 4.85279 9.25175C4.83708 9.26036 4.82105 9.26822 4.80469 9.27532ZM12.3197 10.6358C12.1867 10.7501 12.064 10.8818 11.8742 10.9064C11.7502 10.9232 11.685 10.8457 11.7131 10.7233C11.7231 10.6804 11.7315 10.6368 11.7434 10.5842C11.6808 10.5939 11.6324 10.6026 11.5785 10.6123C11.6056 10.5451 11.7938 10.415 11.8516 10.4237C11.8706 10.4263 11.8958 10.4666 11.8949 10.487C11.8932 10.5354 11.8723 10.5826 11.8671 10.6303C11.8629 10.6655 11.8713 10.7017 11.8729 10.7375C11.9091 10.7346 11.9494 10.7375 11.9817 10.7265C12.0547 10.6994 12.1244 10.662 12.197 10.6326C12.2313 10.6184 12.27 10.6123 12.3062 10.6022C12.3097 10.6135 12.3159 10.6255 12.3197 10.6358ZM15.935 10.4495C15.9628 10.4528 15.9909 10.4502 16.0157 10.4589C16.0642 10.4721 16.0877 10.5054 16.0664 10.557C16.0574 10.5796 16.0451 10.601 16.0332 10.6216C16.0061 10.6752 15.9948 10.7156 16.0803 10.7133C16.0997 10.7133 16.1339 10.7288 16.1362 10.7437C16.1413 10.7656 16.1349 10.8021 16.1171 10.816C16.0316 10.8844 15.936 10.9354 15.823 10.9319C15.8001 10.9312 15.7639 10.9128 15.7607 10.8951C15.7539 10.8718 15.7649 10.8363 15.7807 10.816C15.8078 10.783 15.8472 10.7585 15.876 10.7275C15.9079 10.6933 15.9121 10.6536 15.8692 10.6239C15.8262 10.5942 15.7642 10.568 15.8017 10.508C15.8246 10.4721 15.8824 10.4573 15.9254 10.4324C15.9279 10.4379 15.9325 10.4434 15.935 10.4495ZM10.5989 8.7339C10.608 8.72389 10.6041 8.72712 10.6005 8.73132C10.5754 8.77813 10.5489 8.84625 10.4879 8.82397C10.4621 8.81193 10.439 8.79484 10.4199 8.77371C10.4008 8.75258 10.3862 8.72785 10.3768 8.70097C10.3565 8.62671 10.3645 8.54374 10.361 8.46496L10.3891 8.46044C10.4214 8.53438 10.4543 8.6096 10.4853 8.68386L10.5198 8.68095C10.5389 8.60218 10.5566 8.52211 10.5757 8.44333L10.5976 8.44107C10.6372 8.50887 10.6767 8.57785 10.7161 8.64802C10.7277 8.64737 10.7371 8.64479 10.7474 8.64415L10.7852 8.3539C10.852 8.43849 10.863 8.51565 10.864 8.59733C10.864 8.66384 10.8475 8.73196 10.7807 8.75101C10.7332 8.76489 10.6738 8.74197 10.5989 8.7339ZM14.9323 9.06321C14.9523 9.03028 14.9655 8.98928 14.9939 8.96345C15.0795 8.88919 15.1712 8.82139 15.2587 8.75004C15.3549 8.66997 15.4475 8.58797 15.5454 8.50887C15.5638 8.49402 15.5973 8.47594 15.6132 8.48304C15.6322 8.49176 15.6419 8.52663 15.6467 8.5502C15.6596 8.61832 15.6399 8.66997 15.5776 8.70807C15.3939 8.82236 15.2131 8.94149 15.0298 9.05643C15.0078 9.06967 14.9833 9.07709 14.9578 9.08775C14.9497 9.07911 14.9412 9.07092 14.9323 9.06321ZM16.952 7.62135C16.944 7.56388 16.943 7.50544 16.9275 7.44927C16.8929 7.31787 16.8607 7.18324 16.8077 7.05894C16.7761 6.98081 16.7745 6.92076 16.8216 6.85651C16.8665 6.79581 16.8994 6.79355 16.9255 6.86103C16.9682 6.97209 17.0114 7.08444 17.026 7.1997C17.0418 7.31335 17.0227 7.4299 17.0153 7.54483C17.0137 7.57195 16.9933 7.59713 16.9824 7.62296C16.9723 7.62195 16.9622 7.62141 16.952 7.62135ZM13.0584 7.30237C13.0584 7.24878 13.0513 7.20874 13.0604 7.17258C13.0946 7.03279 13.0471 6.92366 12.9503 6.8281C12.876 6.75352 12.8737 6.67152 12.9516 6.60404C12.9706 6.58822 13.0223 6.58338 13.04 6.59791C13.1998 6.72446 13.2334 7.12609 13.102 7.28171C13.0972 7.28752 13.0888 7.28816 13.0584 7.30237ZM8.60886 7.87317C8.63469 7.99844 8.50619 8.16503 8.36543 8.17278C8.2831 8.17698 8.20142 8.09465 8.20078 7.99521C8.19755 7.83637 8.28795 7.72176 8.39772 7.62103C8.40385 7.61521 8.41773 7.61877 8.4497 7.61521C8.41935 7.67752 8.39287 7.72628 8.3735 7.7747C8.35349 7.82184 8.33218 7.86994 8.32637 7.91934C8.32217 7.94743 8.34025 7.99812 8.36156 8.00716C8.38932 8.01846 8.43614 8.01039 8.46422 7.99327C8.51394 7.96325 8.55527 7.91966 8.60886 7.87317Z" fill="white"/>
<path fill-rule="evenodd" clip-rule="evenodd" d="M13.2427 7.6896C13.2685 7.62212 13.2963 7.55464 13.325 7.48297C13.3802 7.54915 13.3906 7.73286 13.3473 7.78742C13.3127 7.83068 13.2672 7.83488 13.2243 7.8013C13.1759 7.76321 13.1381 7.76256 13.088 7.80195C13.0286 7.85038 12.9876 7.83811 12.9686 7.76611C12.9531 7.708 12.9553 7.64698 12.9505 7.58854C12.9602 7.58499 12.9712 7.58241 12.9802 7.5795C13.0051 7.62051 13.0286 7.66183 13.0625 7.71994C13.0906 7.64763 13.11 7.59274 13.1391 7.51687C13.1694 7.58887 13.192 7.63697 13.2136 7.68734C13.2229 7.68777 13.2326 7.68852 13.2427 7.6896ZM8.05444 9.95635C8.06768 9.8427 8.07995 9.74165 8.09093 9.6406C7.9408 9.62026 7.90722 9.57054 7.96082 9.46109C7.97631 9.4301 8.0199 9.38393 8.04379 9.38877C8.08834 9.3962 8.14549 9.42396 8.16615 9.46206C8.23104 9.57861 8.18294 9.83915 8.0906 9.9373C8.08641 9.94311 8.0764 9.94472 8.05444 9.95635ZM6.30394 6.52539C6.3133 6.58673 6.31491 6.62806 6.32718 6.66583C6.33525 6.69392 6.35817 6.71684 6.37303 6.74299C6.39724 6.72749 6.42694 6.71684 6.44373 6.69682C6.46924 6.66002 6.48635 6.61805 6.52509 6.57769C6.52929 6.61095 6.52929 6.64517 6.53994 6.6739C6.55318 6.70425 6.57836 6.72911 6.59741 6.75623C6.61613 6.73298 6.63712 6.712 6.65423 6.68714C6.66392 6.67326 6.66811 6.65614 6.6778 6.6371C6.72978 6.70716 6.72429 6.79303 6.66682 6.84243C6.59515 6.90345 6.55059 6.84631 6.50733 6.79917C6.38885 6.87472 6.34171 6.87762 6.28521 6.8137C6.21999 6.73783 6.21903 6.62806 6.30394 6.52539ZM15.5424 9.49563C15.5378 9.45463 15.5291 9.4301 15.5337 9.40943C15.5708 9.28578 15.5211 9.20119 15.4232 9.13146C15.3519 9.08174 15.3519 9.02136 15.4245 8.97132C15.4474 8.95582 15.4952 8.95001 15.5182 8.96325C15.6657 9.04881 15.7077 9.32678 15.5966 9.45334C15.5872 9.46464 15.5734 9.47271 15.5424 9.49563ZM10.2072 7.32477C10.2072 7.28829 10.2056 7.25213 10.2072 7.21597C10.2172 7.05584 10.1869 6.90636 10.0962 6.76979C10.0807 6.74751 10.0674 6.70812 10.0765 6.68714C10.0927 6.65502 10.1197 6.62956 10.1527 6.61514C10.1675 6.61062 10.2085 6.64678 10.2201 6.67164C10.2902 6.82048 10.3041 6.97835 10.2857 7.13849C10.2789 7.20338 10.2599 7.26666 10.246 7.33091C10.2331 7.32962 10.2198 7.32639 10.2072 7.32477ZM5.14812 7.03614C5.1549 6.89958 5.22528 6.78755 5.17105 6.66551C5.15071 6.67358 5.13908 6.68133 5.12585 6.68488C5.09517 6.6894 5.06257 6.69198 5.03125 6.69521C5.03835 6.66196 5.03545 6.62031 5.05514 6.59642C5.09517 6.54896 5.13715 6.48051 5.21398 6.51183C5.28372 6.54121 5.28695 6.61385 5.28243 6.68004C5.27597 6.8053 5.22528 6.91249 5.14812 7.03614Z" fill="white"/>
</g>
<defs>
<clipPath id="clip0_1385_41370">
<rect width="20.6626" height="20.6626" fill="white" transform="translate(0.755859 0.371094)"/>
</clipPath>
</defs>
</svg>
