<svg width="41" height="40" viewBox="0 0 41 40" fill="none" xmlns="http://www.w3.org/2000/svg">
<g clip-path="url(#clip0_636_32068)">
<rect x="0.457031" y="0.0351562" width="39.928" height="39.928" rx="19.964" fill="#CDCCDC"/>
<rect x="0.457031" y="0.0351562" width="39.928" height="39.928" rx="8.8729" fill="#CDCCDC"/>
<rect x="-1.99609" y="-2" width="45" height="45" rx="22.5" fill="white" fill-opacity="0.7"/>
<path d="M21.0418 26.9923C20.7946 27.0795 20.3876 27.0795 20.1404 26.9923C18.0325 26.2727 13.3223 23.2706 13.3223 18.1824C13.3223 15.9364 15.1322 14.1191 17.3637 14.1191C18.6867 14.1191 19.857 14.7588 20.5911 15.7474C21.3253 14.7588 22.5028 14.1191 23.8185 14.1191C26.05 14.1191 27.86 15.9364 27.86 18.1824C27.86 23.2706 23.1498 26.2727 21.0418 26.9923Z" stroke="#383375" stroke-width="1.09033" stroke-linecap="round" stroke-linejoin="round"/>
</g>
<defs>
<clipPath id="clip0_636_32068">
<rect x="0.457031" y="0.0351562" width="39.928" height="39.928" rx="19.964" fill="white"/>
</clipPath>
</defs>
</svg>
