<svg width="101" height="98" viewBox="0 0 101 98" fill="none" xmlns="http://www.w3.org/2000/svg">
<circle cx="49" cy="49" r="49" fill="#DBDBDB"/>
<path d="M58.375 55.25C57.8777 55.25 57.4008 55.4475 57.0492 55.7992C56.6975 56.1508 56.5 56.6277 56.5 57.125C56.5 57.6223 56.6975 58.0992 57.0492 58.4508C57.4008 58.8025 57.8777 59 58.375 59H64.625C65.1223 59 65.5992 58.8025 65.9508 58.4508C66.3025 58.0992 66.5 57.6223 66.5 57.125C66.5 56.6277 66.3025 56.1508 65.9508 55.7992C65.5992 55.4475 65.1223 55.25 64.625 55.25H58.375ZM24 39.625C24 37.4701 24.856 35.4035 26.3798 33.8798C27.9035 32.356 29.9701 31.5 32.125 31.5H65.875C66.942 31.5 67.9985 31.7102 68.9843 32.1185C69.9701 32.5268 70.8658 33.1253 71.6202 33.8798C72.3747 34.6342 72.9732 35.5299 73.3815 36.5157C73.7898 37.5015 74 38.558 74 39.625V58.375C74 59.442 73.7898 60.4985 73.3815 61.4843C72.9732 62.4701 72.3747 63.3658 71.6202 64.1202C70.8658 64.8747 69.9701 65.4732 68.9843 65.8815C67.9985 66.2898 66.942 66.5 65.875 66.5H32.125C29.9701 66.5 27.9035 65.644 26.3798 64.1202C24.856 62.5965 24 60.5299 24 58.375V39.625ZM70.25 42.75V39.625C70.25 38.4647 69.7891 37.3519 68.9686 36.5314C68.1481 35.7109 67.0353 35.25 65.875 35.25H32.125C30.9647 35.25 29.8519 35.7109 29.0314 36.5314C28.2109 37.3519 27.75 38.4647 27.75 39.625V42.75H70.25ZM27.75 46.5V58.375C27.75 60.79 29.71 62.75 32.125 62.75H65.875C67.0353 62.75 68.1481 62.2891 68.9686 61.4686C69.7891 60.6481 70.25 59.5353 70.25 58.375V46.5H27.75Z" fill="#6F6F6F"/>
</svg>
