<svg width="41" height="30" viewBox="0 0 41 30" fill="none" xmlns="http://www.w3.org/2000/svg">
<path d="M17.8264 24.7836C17.8264 23.3427 18.9951 22.1741 20.4359 22.1741C21.8768 22.1741 23.0454 23.3427 23.0454 24.7836C23.0454 26.2244 21.8768 27.3913 20.4359 27.3913C18.9951 27.3913 17.8264 26.2244 17.8264 24.7836ZM25.6531 24.7836C25.6531 21.9019 23.3176 19.5664 20.4359 19.5664C17.5542 19.5664 15.2188 21.9019 15.2188 24.7836C15.2188 27.6653 17.5542 30.0008 20.4359 30.0008C23.3176 30.0008 25.6531 27.6653 25.6531 24.7836Z" fill="#3C3C3C"/>
<path d="M30.2943 20.1409C30.6717 19.7635 30.77 19.183 30.4944 18.726C28.4401 15.3193 24.7043 13.043 20.4359 13.043C16.1678 13.043 12.4321 15.3207 10.3777 18.7259C10.102 19.183 10.2003 19.7636 10.5777 20.141V20.141C11.2097 20.773 12.2964 20.5459 12.7849 19.7975C14.4145 17.3013 17.2322 15.6507 20.4359 15.6507C23.6397 15.6507 26.4573 17.3013 28.0869 19.7974C28.5755 20.5459 29.6623 20.773 30.2943 20.1409V20.1409Z" fill="#3C3C3C"/>
<path d="M34.9574 15.4846C35.3871 15.0544 35.4591 14.3783 35.096 13.8906C31.7672 9.41903 26.4418 6.52344 20.4396 6.52344C14.4379 6.52344 9.11305 9.42005 5.78412 13.8895C5.42048 14.3777 5.49284 15.0547 5.92352 15.4849V15.4849C6.51014 16.071 7.49005 15.952 7.9934 15.293C10.8532 11.549 15.3646 9.13294 20.4396 9.13294C25.5157 9.13294 30.027 11.5486 32.8869 15.2935C33.3904 15.9528 34.371 16.0715 34.9574 15.4846V15.4846Z" fill="#3C3C3C"/>
<path d="M39.5885 10.8496C40.0409 10.3971 40.0969 9.67924 39.6939 9.18232C35.1509 3.58168 28.2113 0 20.4378 0C12.6649 0 5.72567 3.58123 1.18266 9.18126C0.779153 9.67865 0.835603 10.3973 1.28893 10.8498V10.8498C1.85436 11.4141 2.78969 11.3336 3.2968 10.7163C7.36299 5.76683 13.5313 2.6095 20.4378 2.6095C27.344 2.6095 33.5135 5.76649 37.58 10.7169C38.0873 11.3345 39.0233 11.4147 39.5885 10.8496V10.8496Z" fill="#3C3C3C"/>
</svg>
