<svg width="31" height="26" viewBox="0 0 31 26" fill="none" xmlns="http://www.w3.org/2000/svg">
<path d="M5.5 1H25.5C27.709 1 29.5 2.791 29.5 5V21C29.5 23.209 27.709 25 25.5 25H5.5C3.291 25 1.5 23.209 1.5 21V5C1.5 2.791 3.291 1 5.5 1Z" stroke="#3C3C3C" stroke-width="2"/>
<path d="M13.5 15C13.4723 15.3907 13.4694 16.2301 13.4746 17.0396C13.4816 18.1287 14.3911 19 15.4802 19V19C16.5847 19 17.5 18.1046 17.5 17V15H19.5C20.6046 15 21.5 14.1046 21.5 13V13C21.5 11.8954 20.6046 11 19.5 11H17.5V9C17.5 7.89543 16.6046 7 15.5 7V7C14.3954 7 13.5 7.89543 13.5 9V11H11.4793C10.3862 11 9.5 11.8862 9.5 12.9793V12.9793C9.5 14.0885 10.4113 14.98 11.5204 14.9739C12.2855 14.9697 13.0741 14.9736 13.5 15Z" stroke="#3C3C3C" stroke-width="2"/>
</svg>
