<svg width="36" height="27" viewBox="0 0 36 27" fill="none" xmlns="http://www.w3.org/2000/svg">
<path d="M15.164 15.3661H14.5755H12.9514H12.3629V14.7777L12.363 11.6328L12.3629 11.6322M15.164 15.3661L12.3629 11.6322M15.164 15.3661V14.7777C15.164 9.99191 19.0436 6.11228 23.8294 6.11228L29.8233 6.11228C29.8234 6.11228 29.8236 6.11228 29.8237 6.11228C31.2138 6.11404 32.5522 6.69247 33.5436 7.73006C34.5361 8.76865 35.0987 10.1823 35.1003 11.662V25.2186C35.1003 25.5414 34.8386 25.8031 34.5158 25.8031C34.193 25.8031 33.9313 25.5414 33.9313 25.2186V22.9841V22.4005L33.3478 22.3956L2.85085 22.1403L2.25746 22.1354V22.7288V25.2186C2.25746 25.5414 1.99577 25.8031 1.67296 25.8031C1.35015 25.8031 1.08846 25.5414 1.08846 25.2186V1.17296C1.08846 0.850149 1.35015 0.588459 1.67296 0.588459C1.99577 0.588459 2.25746 0.850149 2.25746 1.17296V4.91006V5.49852H2.84592L6.52751 5.49852C6.52764 5.49852 6.52777 5.49852 6.5279 5.49852M15.164 15.3661L6.5279 5.49852M12.3629 11.6322C12.3611 9.99766 11.7395 8.43572 10.6426 7.28769C9.54641 6.14052 8.06606 5.50045 6.5279 5.49852M12.3629 11.6322L6.5279 5.49852M2.84592 6.77664H2.25746V7.3651V14.7775V15.366H2.84592H10.6055H11.1939V14.7775V11.632L11.1939 11.6314C11.1926 10.3527 10.7068 9.12168 9.83538 8.20972C8.96309 7.29686 7.77456 6.77811 6.5289 6.77664H6.52821H2.84592ZM33.3379 21.1174L33.9313 21.1224V20.529V17.2327V16.6443H33.3429H2.84592H2.25746V17.2327V20.2737V20.8572L2.84099 20.8621L33.3379 21.1174ZM33.3429 15.3661H33.9313V14.7777V11.6614V11.6608C33.9301 10.537 33.5032 9.45454 32.7365 8.65214C31.9689 7.84883 30.9223 7.39171 29.8247 7.39039H29.824H23.7203C19.6404 7.39039 16.333 10.6978 16.333 14.7777V15.3661H16.9214H33.3429Z" fill="#373737" stroke="#373737" stroke-width="1.17692"/>
</svg>
