<svg width="36" height="34" viewBox="0 0 36 34" fill="none" xmlns="http://www.w3.org/2000/svg">
<path d="M31.3127 24.0471V24.5223L31.7745 24.6347C32.5333 24.8195 33.2239 25.1909 33.7773 25.7081C34.3305 26.2251 34.7267 26.8689 34.9295 27.5725C35.1323 28.2759 35.1355 29.0171 34.9388 29.722C34.7421 30.4271 34.3515 31.0738 33.8029 31.595C33.2541 32.1164 32.5669 32.4932 31.8097 32.6838C31.0525 32.8745 30.2551 32.8713 29.4996 32.6748C28.7442 32.4783 28.0604 32.0962 27.5162 31.5707C26.9722 31.0453 26.5872 30.3957 26.3967 29.6891L26.276 29.2418H25.8127H10.3761H9.91278L9.79213 29.6891C9.60155 30.3957 9.21661 31.0453 8.67262 31.5707C8.12842 32.0962 7.44456 32.4783 6.68915 32.6748C5.93365 32.8713 5.13632 32.8745 4.37909 32.6838C3.62194 32.4932 2.9347 32.1164 2.38587 31.595C1.83725 31.0738 1.44666 30.4271 1.24996 29.722C1.05333 29.0171 1.05652 28.2759 1.25926 27.5725C1.46207 26.8689 1.85829 26.2251 2.4115 25.7081C2.96492 25.1909 3.65549 24.8195 4.41432 24.6347L4.87607 24.5223V24.0471V9.38226V8.90702L4.41432 8.79461C3.65549 8.60988 2.96492 8.23843 2.4115 7.72124C1.85829 7.20425 1.46207 6.56045 1.25926 5.85683C1.05652 5.15344 1.05333 4.41225 1.24996 3.70737C1.44666 3.00228 1.83725 2.35552 2.38587 1.83433C2.9347 1.31294 3.62193 0.936162 4.37909 0.745535C5.13632 0.554888 5.93365 0.558004 6.68915 0.754533C7.44456 0.95104 8.12842 1.33312 8.67262 1.85867C9.21661 2.38402 9.60155 3.03369 9.79213 3.74021L9.91278 4.18751H10.3761H25.8127H26.276L26.3967 3.74021C26.5872 3.03369 26.9722 2.38402 27.5162 1.85867C28.0604 1.33312 28.7442 0.95104 29.4996 0.754533C30.2551 0.558004 31.0525 0.554888 31.8097 0.745535C32.5669 0.936162 33.2541 1.31294 33.8029 1.83433C34.3515 2.35552 34.7421 3.00228 34.9388 3.70737C35.1355 4.41225 35.1323 5.15343 34.9295 5.85683C34.7267 6.56045 34.3305 7.20425 33.7773 7.72124C33.2239 8.23843 32.5333 8.60988 31.7745 8.79461L31.3127 8.90702V9.38226V24.0471ZM25.8127 28.0638H26.2743L26.3961 27.6186C26.5909 26.9066 26.9833 26.2532 27.5366 25.7276C28.0902 25.2017 28.7845 24.8231 29.5492 24.6343L30.009 24.5207V24.0471V9.38226V8.90931L29.55 8.79529C28.7856 8.60541 28.0916 8.22637 27.538 7.70046C26.9847 7.17475 26.5918 6.52164 26.3959 5.80983L26.2736 5.36553H25.8127H10.3761H9.91523L9.79294 5.80983C9.59702 6.52164 9.20412 7.17475 8.65075 7.70046C8.09716 8.22637 7.40315 8.60541 6.63876 8.79529L6.17975 8.90931V9.38226V24.0471V24.52L6.63876 24.6341C7.40315 24.8239 8.09716 25.203 8.65075 25.7289C9.20412 26.2546 9.59702 26.9077 9.79294 27.6195L9.91523 28.0638H10.3761H25.8127ZM30.6609 31.6453H30.6617C31.4784 31.6441 32.2671 31.3357 32.8535 30.7786C33.441 30.2205 33.7777 29.4571 33.779 28.6538V28.6528C33.779 28.0539 33.5919 27.4711 33.2453 26.9784C32.8991 26.4861 32.4102 26.1069 31.8441 25.8841C31.2782 25.6615 30.6572 25.6036 30.0583 25.7168C29.4593 25.83 28.905 26.1101 28.4671 26.526C28.0289 26.9423 27.7267 27.4766 27.6039 28.0631C27.481 28.6498 27.5444 29.2577 27.7845 29.8083C28.0244 30.3585 28.4284 30.8236 28.9404 31.1487C29.4522 31.4736 30.0509 31.6453 30.6609 31.6453ZM32.3813 2.28065C31.8695 1.95578 31.2709 1.78408 30.6609 1.78408C29.8436 1.78408 29.054 2.09221 28.4671 2.64972C27.8792 3.20824 27.5428 3.97257 27.5428 4.77652C27.5428 5.37549 27.7299 5.95824 28.0765 6.45096C28.4227 6.94326 28.9115 7.32244 29.4776 7.5452C30.0435 7.76789 30.6646 7.82573 31.2635 7.71256C31.8625 7.59937 32.4167 7.3193 32.8546 6.90331C33.2928 6.48701 33.5951 5.95276 33.7179 5.36627C33.8407 4.77951 33.7773 4.17169 33.5373 3.62108C33.2974 3.0709 32.8934 2.60571 32.3813 2.28065ZM2.94349 3.10208C2.59693 3.59479 2.40981 4.17755 2.40981 4.77652C2.40981 5.58046 2.74627 6.3448 3.33418 6.90331C3.92104 7.46083 4.71067 7.76896 5.52791 7.76896C6.13792 7.76896 6.73656 7.59725 7.24835 7.27238C7.76043 6.94733 8.16441 6.48214 8.4043 5.93195C8.64437 5.38135 8.70774 4.77352 8.58489 4.18677C8.46209 3.60028 8.15986 3.06603 7.72164 2.64972C7.28376 2.23373 6.72953 1.95366 6.13053 1.84047C5.53164 1.7273 4.91056 1.78515 4.34465 2.00783C3.77855 2.2306 3.28974 2.60978 2.94349 3.10208ZM3.80747 31.1487C4.31927 31.4736 4.91791 31.6453 5.52791 31.6453C6.34516 31.6453 7.13479 31.3371 7.72164 30.7796C8.30956 30.2211 8.64602 29.4568 8.64602 28.6528C8.64602 28.0539 8.45889 27.4711 8.11234 26.9784C7.76609 26.4861 7.27728 26.1069 6.71117 25.8841C6.14527 25.6615 5.52419 25.6036 4.92529 25.7168C4.3263 25.83 3.77207 26.1101 3.33418 26.526C2.89597 26.9423 2.59374 27.4766 2.47094 28.0631C2.34808 28.6498 2.41146 29.2577 2.65153 29.8083C2.89142 30.3585 3.2954 30.8236 3.80747 31.1487Z" fill="#373737" stroke="#373737" stroke-width="1.20961"/>
</svg>
