<svg width="31" height="30" viewBox="0 0 31 30" fill="none" xmlns="http://www.w3.org/2000/svg">
<path d="M4.36599 10.0973L4.36596 10.0973C3.93515 10.4993 3.59329 10.9896 3.36017 11.5343C3.12709 12.079 3.00722 12.6674 3.00709 13.2613V13.2615V27.7204V28.6913H3.97796H6.06474H7.03561V27.7204V19.9792C7.03561 18.6447 7.0374 17.6211 7.13901 16.8293L7.13911 16.8285C7.2433 16.011 7.45671 15.4185 7.88753 14.9664C8.3137 14.5191 8.85999 14.3043 9.61528 14.1981L9.61575 14.198C10.3607 14.0929 11.3257 14.0907 12.6005 14.0907H18.3099C19.5862 14.0907 20.5497 14.0929 21.2931 14.198L21.294 14.1981C22.051 14.3044 22.5965 14.5193 23.0208 14.9656L23.0223 14.9672C23.4539 15.4191 23.6672 16.0111 23.7714 16.8285L23.7715 16.8293C23.8731 17.6211 23.8749 18.6447 23.8749 19.9792V27.7204V28.6913H24.8457H26.9325H27.9034V27.7204V13.2615V13.2613C27.9033 12.6674 27.7834 12.079 27.5503 11.5343C27.3172 10.9896 26.9753 10.4993 26.5445 10.0973L26.5445 10.0973L18.1974 2.30939C18.1974 2.30938 18.1974 2.30937 18.1974 2.30936C17.449 1.61108 16.4738 1.21834 15.4552 1.21834C14.4367 1.21834 13.4615 1.61108 12.7131 2.30936C12.7131 2.30937 12.7131 2.30938 12.7131 2.30939L4.36599 10.0973ZM28.0484 27.7204V28.6913H29.0193H29.3671C29.37 28.6913 29.3739 28.6918 29.3793 28.6941C29.3848 28.6965 29.3929 28.7013 29.402 28.7109C29.4211 28.7309 29.4396 28.7678 29.4396 28.8154C29.4396 28.8631 29.4211 28.8999 29.402 28.92C29.3929 28.9296 29.3848 28.9344 29.3793 28.9367C29.3739 28.9391 29.37 28.9396 29.3671 28.9396H1.54339C1.54051 28.9396 1.53656 28.9391 1.53116 28.9367C1.52569 28.9344 1.51757 28.9296 1.50849 28.92C1.48935 28.8999 1.47087 28.8631 1.47087 28.8154C1.47087 28.7678 1.48935 28.7309 1.50849 28.7109C1.51757 28.7013 1.52569 28.6965 1.53116 28.6941C1.53656 28.6918 1.54051 28.6913 1.54339 28.6913H1.89118H2.86205V27.7204V13.2615C2.86205 13.2615 2.86205 13.2615 2.86205 13.2615C2.86207 12.6185 2.99194 11.984 3.24175 11.4003C3.49153 10.8167 3.85477 10.2988 4.30487 9.87897L4.30494 9.87891L12.652 2.09251C12.652 2.09249 12.652 2.09247 12.652 2.09245C13.4316 1.36543 14.4296 0.970868 15.4552 0.970868C16.4809 0.970868 17.4789 1.36543 18.2584 2.09245C18.2585 2.09247 18.2585 2.09249 18.2585 2.09251L26.6055 9.87891L26.6056 9.87897C27.0557 10.2988 27.4189 10.8167 27.6687 11.4003C27.9185 11.984 28.0484 12.6185 28.0484 13.2615V27.7204ZM22.759 28.6913H23.7298L9.62256 14.4464C8.86533 14.5533 8.34526 14.7663 7.95525 15.1788C7.57671 15.5791 7.3815 16.096 7.28059 16.8709L7.28008 16.8749C7.18162 17.6565 7.18065 18.6734 7.18065 20.0551V27.7204V28.6913H8.15152H22.759ZM12.6003 9.83475C12.6003 9.78709 12.6188 9.75026 12.638 9.73018C12.6471 9.72064 12.6552 9.71582 12.6606 9.71344C12.666 9.7111 12.67 9.71058 12.6729 9.71058H18.2376C18.2405 9.71058 18.2444 9.7111 18.2498 9.71344C18.2553 9.71582 18.2634 9.72064 18.2725 9.73018C18.2917 9.75026 18.3101 9.78709 18.3101 9.83475C18.3101 9.88241 18.2917 9.91925 18.2725 9.93933C18.2634 9.94887 18.2553 9.95368 18.2498 9.95606C18.2444 9.95841 18.2405 9.95893 18.2376 9.95893H12.6729C12.67 9.95893 12.666 9.95841 12.6606 9.95606C12.6552 9.95368 12.6471 9.94887 12.638 9.93933C12.6188 9.91925 12.6003 9.88241 12.6003 9.83475ZM11.2092 19.3251C11.2092 19.2774 11.2276 19.2406 11.2468 19.2205C11.2559 19.211 11.264 19.2062 11.2695 19.2038C11.2749 19.2014 11.2788 19.2009 11.2817 19.2009H19.6288C19.6317 19.2009 19.6356 19.2014 19.641 19.2038C19.6465 19.2062 19.6546 19.211 19.6637 19.2205C19.6828 19.2406 19.7013 19.2774 19.7013 19.3251C19.7013 19.3728 19.6828 19.4096 19.6637 19.4297C19.6546 19.4392 19.6465 19.444 19.641 19.4464C19.6356 19.4487 19.6317 19.4493 19.6288 19.4493H11.2817C11.2788 19.4493 11.2749 19.4487 11.2695 19.4464C11.264 19.444 11.2559 19.4392 11.2468 19.4297C11.2276 19.4096 11.2092 19.3728 11.2092 19.3251ZM11.2092 23.7053C11.2092 23.6576 11.2276 23.6208 11.2468 23.6007C11.2559 23.5911 11.264 23.5863 11.2695 23.5839C11.2749 23.5816 11.2788 23.5811 11.2817 23.5811H19.6288C19.6317 23.5811 19.6356 23.5816 19.641 23.5839C19.6465 23.5863 19.6546 23.5911 19.6637 23.6007C19.6828 23.6208 19.7013 23.6576 19.7013 23.7053C19.7013 23.7529 19.6828 23.7897 19.6637 23.8098C19.6546 23.8194 19.6465 23.8242 19.641 23.8266C19.6356 23.8289 19.6317 23.8294 19.6288 23.8294H11.2817C11.2788 23.8294 11.2749 23.8289 11.2695 23.8266C11.264 23.8242 11.2559 23.8194 11.2468 23.8098C11.2276 23.7897 11.2092 23.7529 11.2092 23.7053Z" fill="#373737" stroke="#373737" stroke-width="1.94174"/>
</svg>
