<svg width="38" height="39" viewBox="0 0 38 39" fill="none" xmlns="http://www.w3.org/2000/svg">
<path d="M36.4217 36.9217H35.0786C33.6537 36.9217 32.2872 36.3557 31.2796 35.3481C30.2721 34.3406 29.706 32.9741 29.706 31.5492C29.706 32.9741 29.14 34.3406 28.1324 35.3481C27.1249 36.3557 25.7583 36.9217 24.3334 36.9217C22.9085 36.9217 21.542 36.3557 20.5345 35.3481C19.5269 34.3406 18.9609 32.9741 18.9609 31.5492C18.9609 32.9741 18.3948 34.3406 17.3873 35.3481C16.3797 36.3557 15.0132 36.9217 13.5883 36.9217C12.1634 36.9217 10.7969 36.3557 9.78931 35.3481C8.78176 34.3406 8.21572 32.9741 8.21572 31.5492C8.21572 32.9741 7.64968 34.3406 6.64213 35.3481C5.63457 36.3557 4.26804 36.9217 2.84314 36.9217H1.5M6.87257 7.37257C6.87257 5.94768 7.43861 4.58114 8.44616 3.57359C9.45372 2.56604 10.8203 2 12.2451 2C13.67 2 15.0366 2.56604 16.0441 3.57359C17.0517 4.58114 17.6177 5.94768 17.6177 7.37257V26.1766M25.6766 2C27.1015 2 28.468 2.56604 29.4756 3.57359C30.4831 4.58114 31.0492 5.94768 31.0492 7.37257V26.1766M17.6177 12.7451H31.0492M17.6177 20.804H31.0492" stroke="#373737" stroke-width="2.68629" stroke-linecap="round" stroke-linejoin="round"/>
</svg>
