<svg width="14" height="20" viewBox="0 0 14 20" fill="none" xmlns="http://www.w3.org/2000/svg">
<g clip-path="url(#clip0_636_32089)">
<path d="M3.86719 14.5491C4.42372 15.2722 4.93026 16.0339 5.38317 16.8286C5.76983 17.5761 5.93102 18.0829 6.21359 18.9835C6.3869 19.4811 6.54352 19.6296 6.88027 19.6296C7.24721 19.6296 7.4137 19.377 7.54232 18.9863C7.80943 18.1357 8.01902 17.4867 8.34968 16.8733C8.99852 15.6892 9.80478 14.637 10.597 13.6257C10.8114 13.3395 12.1981 11.6721 12.8223 10.3565C12.8223 10.3565 13.5896 8.91122 13.5896 6.8928C13.5896 5.00477 12.8329 3.69531 12.8329 3.69531L10.6545 4.29009L9.33149 7.84243L9.00419 8.33227L8.93875 8.42101L8.8517 8.5321L8.6989 8.70952L8.48056 8.93207L7.30248 9.91057L4.35715 11.6443L3.86719 14.5491Z" fill="#34A853"/>
<path d="M0.828125 10.1132C1.54697 11.7872 2.93317 13.2587 3.87104 14.55L8.85251 8.53413C8.85251 8.53413 8.15071 9.46986 6.87767 9.46986C5.45964 9.46986 4.31407 8.31543 4.31407 6.85977C4.31407 5.86154 4.90314 5.17578 4.90314 5.17578L1.52159 6.09954L0.828125 10.1132Z" fill="#FBBC04"/>
<path d="M8.90547 0.324219C10.5599 0.868048 11.976 2.00975 12.8326 3.69331L8.85135 8.5301C8.85135 8.5301 9.44042 7.83193 9.44042 6.83991C9.44042 5.35035 8.21011 4.23757 6.88102 4.23757C5.62418 4.23757 4.90234 5.17175 4.90234 5.17175V2.12464L8.90547 0.324219Z" fill="#4285F4"/>
<path d="M1.74219 2.46214C2.73034 1.25682 4.46912 0.015625 6.86629 0.015625C8.02932 0.015625 8.90552 0.326912 8.90552 0.326912L4.90277 5.17519H2.06677L1.74219 2.46214Z" fill="#1A73E8"/>
<path d="M0.825385 10.1122C0.825385 10.1122 0.164062 8.79193 0.164062 6.8792C0.164062 5.0714 0.853386 3.49118 1.73793 2.46094L4.90076 5.17442L0.825385 10.1122Z" fill="#EA4335"/>
</g>
<defs>
<clipPath id="clip0_636_32089">
<rect width="13.4236" height="19.6191" fill="white" transform="translate(0.164062 0.015625)"/>
</clipPath>
</defs>
</svg>
