<svg width="19" height="19" viewBox="0 0 19 19" fill="none" xmlns="http://www.w3.org/2000/svg">
<path d="M10.3875 13.4774L7.06327 11.6644C6.62928 12.1284 6.06576 12.4511 5.44596 12.5906C4.82615 12.7301 4.17872 12.6799 3.58779 12.4466C2.99687 12.2133 2.48978 11.8077 2.13243 11.2824C1.77508 10.7571 1.58398 10.1365 1.58398 9.50121C1.58398 8.8659 1.77508 8.24528 2.13243 7.72C2.48978 7.19473 2.99687 6.78908 3.58779 6.55578C4.17872 6.32249 4.82615 6.27233 5.44596 6.41182C6.06576 6.55131 6.62928 6.87401 7.06327 7.33798L10.3883 5.52506C10.1998 4.7777 10.2903 3.98725 10.643 3.30188C10.9956 2.61651 11.5861 2.08328 12.3038 1.80215C13.0214 1.52101 13.817 1.51128 14.5413 1.77476C15.2656 2.03825 15.869 2.55686 16.2383 3.2334C16.6076 3.90993 16.7175 4.69793 16.5473 5.44968C16.3772 6.20143 15.9387 6.86532 15.3141 7.3169C14.6895 7.76848 13.9216 7.97674 13.1544 7.90265C12.3872 7.82856 11.6734 7.4772 11.1467 6.91444L7.82169 8.72736C7.94957 9.23507 7.94957 9.76656 7.82169 10.2743L11.1467 12.0872C11.6736 11.5247 12.3876 11.1737 13.1548 11.1C13.922 11.0263 14.6898 11.2349 15.3142 11.6868C15.9386 12.1386 16.3768 12.8027 16.5466 13.5545C16.7164 14.3063 16.6061 15.0943 16.2366 15.7706C15.867 16.447 15.2634 16.9653 14.539 17.2285C13.8145 17.4917 13.019 17.4816 12.3015 17.2002C11.5839 16.9187 10.9937 16.3853 10.6413 15.6998C10.289 15.0143 10.1987 14.2238 10.3875 13.4766M4.75081 11.0841C5.17074 11.0841 5.57347 10.9173 5.8704 10.6204C6.16733 10.3235 6.33415 9.92074 6.33415 9.50081C6.33415 9.08089 6.16733 8.67816 5.8704 8.38123C5.57347 8.0843 5.17074 7.91748 4.75081 7.91748C4.33089 7.91748 3.92816 8.0843 3.63123 8.38123C3.3343 8.67816 3.16748 9.08089 3.16748 9.50081C3.16748 9.92074 3.3343 10.3235 3.63123 10.6204C3.92816 10.9173 4.33089 11.0841 4.75081 11.0841ZM13.4591 6.33415C13.8791 6.33415 14.2818 6.16733 14.5787 5.8704C14.8757 5.57347 15.0425 5.17074 15.0425 4.75081C15.0425 4.33089 14.8757 3.92816 14.5787 3.63123C14.2818 3.3343 13.8791 3.16748 13.4591 3.16748C13.0392 3.16748 12.6365 3.3343 12.3396 3.63123C12.0426 3.92816 11.8758 4.33089 11.8758 4.75081C11.8758 5.17074 12.0426 5.57347 12.3396 5.8704C12.6365 6.16733 13.0392 6.33415 13.4591 6.33415ZM13.4591 15.8341C13.8791 15.8341 14.2818 15.6673 14.5787 15.3704C14.8757 15.0735 15.0425 14.6707 15.0425 14.2508C15.0425 13.8309 14.8757 13.4282 14.5787 13.1312C14.2818 12.8343 13.8791 12.6675 13.4591 12.6675C13.0392 12.6675 12.6365 12.8343 12.3396 13.1312C12.0426 13.4282 11.8758 13.8309 11.8758 14.2508C11.8758 14.6707 12.0426 15.0735 12.3396 15.3704C12.6365 15.6673 13.0392 15.8341 13.4591 15.8341Z" fill="#373737"/>
</svg>
