<svg width="27" height="27" viewBox="0 0 27 27" fill="none" xmlns="http://www.w3.org/2000/svg">
<path d="M13.4772 2.9375C19.3112 2.9375 24.0403 7.6666 24.0403 13.5006C24.0403 19.3346 19.3112 24.0637 13.4772 24.0637C11.6104 24.0669 9.77648 23.5729 8.16394 22.6324L2.9183 24.0637L4.34644 18.816C3.40522 17.2029 2.91081 15.3682 2.91408 13.5006C2.91408 7.6666 7.64318 2.9375 13.4772 2.9375ZM9.87727 8.53594L9.66601 8.54439C9.52942 8.5538 9.39596 8.58968 9.27306 8.65002C9.15853 8.715 9.05395 8.79611 8.96251 8.89086C8.83575 9.01023 8.76392 9.11374 8.68681 9.21409C8.29611 9.72208 8.08574 10.3457 8.08894 10.9866C8.09105 11.5042 8.22626 12.008 8.43752 12.4791C8.86955 13.4319 9.58045 14.4407 10.5185 15.3755C10.7445 15.6005 10.9663 15.8266 11.2051 16.0368C12.3706 17.0629 13.7595 17.8029 15.2613 18.198L15.8613 18.2899C16.0567 18.3005 16.2521 18.2857 16.4486 18.2762C16.7562 18.26 17.0565 18.1767 17.3285 18.0322C17.4667 17.9607 17.6017 17.8832 17.7331 17.7998C17.7331 17.7998 17.7778 17.7695 17.8651 17.7047C18.0077 17.5991 18.0954 17.5241 18.2137 17.4005C18.3024 17.3089 18.3763 17.2026 18.4355 17.0815C18.5179 16.9093 18.6003 16.5808 18.6341 16.3072C18.6594 16.0981 18.652 15.984 18.6489 15.9132C18.6446 15.8002 18.5506 15.6829 18.4482 15.6333L17.8334 15.3576C17.8334 15.3576 16.9144 14.9573 16.3525 14.7016C16.2936 14.676 16.2306 14.6613 16.1665 14.6583C16.0943 14.6508 16.0212 14.6588 15.9523 14.682C15.8834 14.7051 15.8203 14.7428 15.7673 14.7925C15.762 14.7904 15.6912 14.8506 14.9275 15.7759C14.8837 15.8348 14.8233 15.8793 14.754 15.9038C14.6848 15.9282 14.6099 15.9315 14.5388 15.9132C14.4699 15.8949 14.4025 15.8716 14.337 15.8435C14.206 15.7886 14.1606 15.7674 14.0708 15.7294C13.4644 15.4652 12.903 15.1078 12.4071 14.6699C12.274 14.5537 12.1505 14.427 12.0237 14.3045C11.6082 13.9064 11.246 13.4562 10.9463 12.9651L10.8839 12.8647C10.8398 12.7969 10.8037 12.7242 10.7762 12.6482C10.7361 12.4929 10.8406 12.3682 10.8406 12.3682C10.8406 12.3682 11.0973 12.0873 11.2167 11.9351C11.3329 11.7873 11.4311 11.6436 11.4945 11.5411C11.6191 11.3404 11.6582 11.1345 11.5927 10.975C11.297 10.2524 10.9913 9.5338 10.6758 8.81903C10.6135 8.67749 10.4287 8.57608 10.2607 8.55601C10.2037 8.54897 10.1466 8.54334 10.0896 8.53911C9.94776 8.53098 9.80554 8.53239 9.6639 8.54334L9.87727 8.53594Z" fill="#383375"/>
</svg>
