<svg width="21" height="21" viewBox="0 0 21 21" fill="none" xmlns="http://www.w3.org/2000/svg">
<path d="M12.0128 3.06984L13.5528 6.14984C13.7628 6.57859 14.3228 6.98984 14.7953 7.06859L17.5866 7.53234C19.3716 7.82984 19.7916 9.12484 18.5053 10.4023L16.3353 12.5723C15.9678 12.9398 15.7666 13.6486 15.8803 14.1561L16.5016 16.8423C16.9916 18.9686 15.8628 19.7911 13.9816 18.6798L11.3653 17.1311C10.8928 16.8511 10.1141 16.8511 9.63282 17.1311L7.01657 18.6798C5.14407 19.7911 4.00657 18.9598 4.49657 16.8423L5.11782 14.1561C5.23157 13.6486 5.03032 12.9398 4.66282 12.5723L2.49282 10.4023C1.21532 9.12484 1.62657 7.82984 3.41157 7.53234L6.20282 7.06859C6.66657 6.98984 7.22657 6.57859 7.43657 6.14984L8.97657 3.06984C9.81657 1.39859 11.1816 1.39859 12.0128 3.06984Z" stroke="#6F6F6F" stroke-width="0.8" stroke-linecap="round" stroke-linejoin="round"/>
</svg>
