<svg width="21" height="22" viewBox="0 0 21 22" fill="none" xmlns="http://www.w3.org/2000/svg">
<path d="M18.9703 15.7191L16.2316 9.32283C15.3041 7.15283 13.5978 7.06533 12.4516 9.13033L10.7978 12.1141C9.9578 13.6278 8.39155 13.7591 7.30655 12.4028L7.11405 12.1578C5.9853 10.7403 4.3928 10.9153 3.57905 12.5341L2.07405 15.5528C1.0153 17.6528 2.54655 20.1291 4.89155 20.1291H16.0566C18.3316 20.1291 19.8628 17.8103 18.9703 15.7191Z" stroke="#EFEFEF" stroke-linecap="round" stroke-linejoin="round"/>
<path d="M6.09961 7.87891C7.54936 7.87891 8.72461 6.70365 8.72461 5.25391C8.72461 3.80416 7.54936 2.62891 6.09961 2.62891C4.64986 2.62891 3.47461 3.80416 3.47461 5.25391C3.47461 6.70365 4.64986 7.87891 6.09961 7.87891Z" stroke="#EFEFEF" stroke-linecap="round" stroke-linejoin="round"/>
</svg>
