<svg width="19" height="19" viewBox="0 0 19 19" fill="none" xmlns="http://www.w3.org/2000/svg">
<path d="M9.39453 11.75C10.6372 11.75 11.6445 10.7426 11.6445 9.5C11.6445 8.25736 10.6372 7.25 9.39453 7.25C8.15189 7.25 7.14453 8.25736 7.14453 9.5C7.14453 10.7426 8.15189 11.75 9.39453 11.75Z" stroke="#939393" stroke-miterlimit="10" stroke-linecap="round" stroke-linejoin="round"/>
<path d="M1.89453 10.1591V8.8391C1.89453 8.0591 2.53203 7.4141 3.31953 7.4141C4.67703 7.4141 5.23203 6.4541 4.54953 5.2766C4.15953 4.6016 4.39203 3.7241 5.07453 3.3341L6.37203 2.5916C6.96453 2.2391 7.72953 2.4491 8.08203 3.0416L8.16453 3.1841C8.83953 4.3616 9.94953 4.3616 10.632 3.1841L10.7145 3.0416C11.067 2.4491 11.832 2.2391 12.4245 2.5916L13.722 3.3341C14.4045 3.7241 14.637 4.6016 14.247 5.2766C13.5645 6.4541 14.1195 7.4141 15.477 7.4141C16.257 7.4141 16.902 8.0516 16.902 8.8391V10.1591C16.902 10.9391 16.2645 11.5841 15.477 11.5841C14.1195 11.5841 13.5645 12.5441 14.247 13.7216C14.637 14.4041 14.4045 15.2741 13.722 15.6641L12.4245 16.4066C11.832 16.7591 11.067 16.5491 10.7145 15.9566L10.632 15.8141C9.95703 14.6366 8.84703 14.6366 8.16453 15.8141L8.08203 15.9566C7.72953 16.5491 6.96453 16.7591 6.37203 16.4066L5.07453 15.6641C4.39203 15.2741 4.15953 14.3966 4.54953 13.7216C5.23203 12.5441 4.67703 11.5841 3.31953 11.5841C2.53203 11.5841 1.89453 10.9391 1.89453 10.1591Z" stroke="#939393" stroke-miterlimit="10" stroke-linecap="round" stroke-linejoin="round"/>
</svg>
