<svg width="19" height="19" viewBox="0 0 19 19" fill="none" xmlns="http://www.w3.org/2000/svg">
<path d="M10.1527 2.69023L14.5777 4.65523C15.8527 5.21773 15.8527 6.14773 14.5777 6.71023L10.1527 8.67523C9.65016 8.90023 8.82516 8.90023 8.32266 8.67523L3.89766 6.71023C2.62266 6.14773 2.62266 5.21773 3.89766 4.65523L8.32266 2.69023C8.82516 2.46523 9.65016 2.46523 10.1527 2.69023Z" stroke="#939393" stroke-linecap="round" stroke-linejoin="round"/>
<path d="M2.64453 8.75C2.64453 9.38 3.11703 10.1075 3.69453 10.3625L8.78703 12.6275C9.17703 12.8 9.61953 12.8 10.002 12.6275L15.0945 10.3625C15.672 10.1075 16.1445 9.38 16.1445 8.75" stroke="#939393" stroke-linecap="round" stroke-linejoin="round"/>
<path d="M2.64453 12.5C2.64453 13.1975 3.05703 13.8275 3.69453 14.1125L8.78703 16.3775C9.17703 16.55 9.61953 16.55 10.002 16.3775L15.0945 14.1125C15.732 13.8275 16.1445 13.1975 16.1445 12.5" stroke="#939393" stroke-linecap="round" stroke-linejoin="round"/>
</svg>
